<svg width="142" height="25" viewBox="0 0 142 25" fill="none" xmlns="http://www.w3.org/2000/svg">
<path d="M138.968 12.8789H91.2402" stroke="#2563EB" stroke-width="0.304813" stroke-linecap="round" stroke-dasharray="1.83 1.83"/>
<path d="M140.484 11.668C139.816 11.6682 139.274 12.2106 139.274 12.8789C139.275 13.547 139.816 14.0886 140.484 14.0889C141.153 14.0889 141.695 13.5471 141.695 12.8789C141.695 12.2105 141.153 11.668 140.484 11.668Z" stroke="#2563EB" stroke-width="0.609626"/>
<path d="M3.36621 12.8789L51.0938 12.8789" stroke="#2563EB" stroke-width="0.304813" stroke-linecap="round" stroke-dasharray="1.83 1.83"/>
<path d="M1.84961 14.0898C2.51785 14.0896 3.05957 13.5472 3.05957 12.8789C3.05931 12.2108 2.5177 11.6692 1.84961 11.6689C1.18131 11.6689 0.638927 12.2107 0.638672 12.8789C0.638672 13.5474 1.18115 14.0898 1.84961 14.0898Z" stroke="#2563EB" stroke-width="0.609626"/>
<g opacity="0.4">
<rect x="-0.0201176" y="0.0201176" width="24.9599" height="24.9598" transform="matrix(-1 0 0 1 83.6268 0)" stroke="#2563EB" stroke-width="0.0402353"/>
<path d="M71.1267 7.5C72.034 7.49922 73.2866 7.75834 73.8032 7.97578C74.3233 8.19037 74.6689 8.40625 74.7767 8.94375L75.166 11.9393V16.0651H74.4954V16.7086C74.496 17.4987 73.342 17.4987 73.3436 16.7086V16.0651H68.9907V16.7086C68.9899 17.4987 67.836 17.4987 67.8337 16.7086V16.0651H67.1686V11.9393L67.5579 8.94375C67.6631 8.40625 68.0087 8.19037 68.5256 7.97578C69.0454 7.75834 70.2978 7.49922 71.2025 7.5" fill="#1A4DBF"/>
<path d="M68.4122 14.7727C68.1078 14.7701 67.8599 14.5221 67.8606 14.2156C67.8599 13.9109 68.1078 13.663 68.4122 13.6641C68.7192 13.663 68.9672 13.9109 68.9692 14.2156C68.9672 14.5221 68.7192 14.7701 68.4122 14.7727Z" fill="#F0F1F3"/>
<path d="M73.9171 14.7727C74.2246 14.7701 74.4723 14.5221 74.4741 14.2156C74.4723 13.9109 74.2246 13.663 73.9171 13.6641C73.6132 13.663 73.3653 13.9109 73.3655 14.2156C73.3653 14.5221 73.6132 14.7701 73.9171 14.7727Z" fill="#F0F1F3"/>
<path d="M71.2078 8.74428H72.8138C73.1356 8.74167 73.1356 8.25574 72.8138 8.25782H69.5208C69.1966 8.25574 69.1966 8.74167 69.5208 8.74428H71.2078Z" fill="#F0F1F3"/>
<path d="M71.208 9.23047H73.6845C74.0273 9.23177 74.1168 9.40573 74.1606 9.66849L74.4635 11.8422C74.489 12.0484 74.4288 12.2549 74.139 12.2531H68.1908C67.9038 12.2549 67.8436 12.0484 67.8717 11.8422L68.1746 9.66849C68.2158 9.40573 68.3053 9.23177 68.6449 9.23047H71.208Z" fill="#F0F1F3"/>
</g>
</svg>
