<svg width="25" height="24" viewBox="0 0 25 24" fill="none" xmlns="http://www.w3.org/2000/svg">
<path d="M3.69803 15.4643L4.41277 15.2371L3.69803 15.4643ZM2.63937 9.45481L3.36184 9.65617L2.63937 9.45481ZM7.06008 4.8893L6.61297 4.28715L7.06008 4.8893ZM2.74737 9.11512L3.45346 9.36796L2.74737 9.11512ZM6.58054 21.172L6.15597 21.7902H6.15597L6.58054 21.172ZM6.2978 20.962L5.82879 21.5473L6.2978 20.962ZM21.302 15.4643L20.5872 15.2371L21.302 15.4643ZM18.7022 20.962L19.1712 21.5473L18.7022 20.962ZM18.4195 21.172L18.844 21.7902L18.4195 21.172ZM17.9399 4.8893L18.387 4.28715L17.9399 4.8893ZM22.2526 9.11512L21.5465 9.36796L22.2526 9.11512ZM22.3606 9.45481L21.6382 9.65617L22.3606 9.45481ZM12.6747 2.00327L12.6466 2.75275L12.6747 2.00327ZM12.3253 2.00327L12.3534 2.75275L12.3253 2.00327ZM10.5934 16.6629C10.1792 16.6629 9.84338 16.9987 9.84338 17.4129C9.84338 17.8271 10.1792 18.1629 10.5934 18.1629V16.6629ZM14.4066 18.1629C14.8208 18.1629 15.1566 17.8271 15.1566 17.4129C15.1566 16.9987 14.8208 16.6629 14.4066 16.6629V18.1629ZM3.69803 15.4643L4.41277 15.2371C3.9224 13.6946 3.57325 12.5932 3.39005 11.6991C3.21029 10.8217 3.20651 10.2135 3.36184 9.65617L2.63937 9.45481L1.91691 9.25346C1.67427 10.124 1.71429 10.9933 1.92058 12.0001C2.12343 12.9902 2.50258 14.1795 2.98328 15.6915L3.69803 15.4643ZM7.06008 4.8893L6.61297 4.28715C5.35491 5.22129 4.36279 5.95669 3.62805 6.63693C2.87993 7.32956 2.34612 8.01095 2.04127 8.86228L2.74737 9.11512L3.45346 9.36796C3.64787 8.82506 3.99926 8.33742 4.64711 7.73762C5.30833 7.12544 6.22295 6.44504 7.5072 5.49145L7.06008 4.8893ZM2.63937 9.45481L3.36184 9.65617C3.38893 9.55896 3.41949 9.46283 3.45346 9.36796L2.74737 9.11512L2.04127 8.86228C1.99514 8.9911 1.95366 9.12158 1.91691 9.25346L2.63937 9.45481ZM12.5 22V21.25C10.9121 21.25 9.78207 21.2489 8.89641 21.151C8.02914 21.0552 7.46936 20.8725 7.00511 20.5537L6.58054 21.172L6.15597 21.7902C6.89748 22.2994 7.7262 22.5308 8.7316 22.642C9.71862 22.7511 10.9454 22.75 12.5 22.75V22ZM3.69803 15.4643L2.98328 15.6915C3.46395 17.2034 3.84128 18.3935 4.24669 19.3166C4.65879 20.2549 5.12756 20.9853 5.82879 21.5473L6.2978 20.962L6.76681 20.3768C6.32488 20.0226 5.9793 19.5314 5.62007 18.7134C5.25415 17.8803 4.90318 16.7796 4.41277 15.2371L3.69803 15.4643ZM6.58054 21.172L7.00511 20.5537C6.92362 20.4977 6.84413 20.4387 6.76681 20.3768L6.2978 20.962L5.82879 21.5473C5.93487 21.6323 6.044 21.7133 6.15597 21.7902L6.58054 21.172ZM21.302 15.4643L20.5872 15.2371C20.0968 16.7796 19.7458 17.8803 19.3799 18.7134C19.0207 19.5314 18.6751 20.0226 18.2332 20.3768L18.7022 20.962L19.1712 21.5473C19.8724 20.9853 20.3412 20.2549 20.7533 19.3166C21.1587 18.3935 21.5361 17.2034 22.0167 15.6915L21.302 15.4643ZM12.5 22V22.75C14.0546 22.75 15.2814 22.7511 16.2684 22.642C17.2738 22.5308 18.1025 22.2994 18.844 21.7902L18.4195 21.172L17.9949 20.5537C17.5306 20.8725 16.9709 21.0552 16.1036 21.151C15.2179 21.2489 14.0879 21.25 12.5 21.25V22ZM18.7022 20.962L18.2332 20.3768C18.1559 20.4387 18.0764 20.4977 17.9949 20.5537L18.4195 21.172L18.844 21.7902C18.956 21.7133 19.0651 21.6323 19.1712 21.5473L18.7022 20.962ZM17.9399 4.8893L17.4928 5.49145C18.777 6.44504 19.6917 7.12544 20.3529 7.73762C21.0007 8.33742 21.3521 8.82506 21.5465 9.36796L22.2526 9.11512L22.9587 8.86228C22.6539 8.01095 22.1201 7.32956 21.3719 6.63693C20.6372 5.95669 19.6451 5.22129 18.387 4.28715L17.9399 4.8893ZM21.302 15.4643L22.0167 15.6915C22.4974 14.1795 22.8766 12.9902 23.0794 12.0001C23.2857 10.9933 23.3257 10.124 23.0831 9.25346L22.3606 9.45481L21.6382 9.65617C21.7935 10.2135 21.7897 10.8217 21.6099 11.6991C21.4268 12.5932 21.0776 13.6946 20.5872 15.2371L21.302 15.4643ZM22.2526 9.11512L21.5465 9.36796C21.5805 9.46283 21.6111 9.55896 21.6382 9.65617L22.3606 9.45481L23.0831 9.25346C23.0463 9.12158 23.0049 8.9911 22.9587 8.86228L22.2526 9.11512ZM17.9399 4.8893L18.387 4.28715C17.1291 3.35312 16.138 2.61589 15.2775 2.1117C14.402 1.59868 13.5983 1.28737 12.7028 1.2538L12.6747 2.00327L12.6466 2.75275C13.2029 2.7736 13.7607 2.96144 14.5192 3.4059C15.2928 3.85918 16.2084 4.53775 17.4928 5.49145L17.9399 4.8893ZM7.06008 4.8893L7.5072 5.49145C8.7916 4.53775 9.7072 3.85918 10.4808 3.4059C11.2393 2.96144 11.7971 2.7736 12.3534 2.75275L12.3253 2.00327L12.2972 1.2538C11.4017 1.28737 10.598 1.59868 9.72248 2.1117C8.862 2.61589 7.87087 3.35312 6.61297 4.28715L7.06008 4.8893ZM12.6747 2.00327L12.7028 1.2538C12.5677 1.24873 12.4323 1.24873 12.2972 1.2538L12.3253 2.00327L12.3534 2.75275C12.4511 2.74908 12.5489 2.74908 12.6466 2.75275L12.6747 2.00327ZM10.5934 17.4129V18.1629H14.4066V17.4129V16.6629H10.5934V17.4129Z" fill="#5E5F60" fill-opacity="0.5"/>
</svg>
