<svg width="155" height="45" viewBox="0 0 155 45" fill="none" xmlns="http://www.w3.org/2000/svg">
<path d="M2.08063 43.5C1.64063 43.5 1.28063 43.36 1.00063 43.08C0.720625 42.8 0.580625 42.44 0.580625 42V3C0.580625 2.56 0.720625 2.2 1.00063 1.92C1.28063 1.64 1.64063 1.5 2.08063 1.5H8.74063C9.18063 1.5 9.54063 1.64 9.82063 1.92C10.1006 2.2 10.2406 2.56 10.2406 3V35.46H28.8406C29.2806 35.46 29.6406 35.6 29.9206 35.88C30.2006 36.16 30.3406 36.52 30.3406 36.96V42C30.3406 42.44 30.2006 42.8 29.9206 43.08C29.6406 43.36 29.2806 43.5 28.8406 43.5H2.08063ZM52.0067 44.1C48.3667 44.1 45.2267 43.5 42.5867 42.3C39.9467 41.1 37.8867 39.3 36.4067 36.9C34.9267 34.46 34.1267 31.4 34.0067 27.72C33.9667 26 33.9467 24.3 33.9467 22.62C33.9467 20.9 33.9667 19.16 34.0067 17.4C34.1267 13.8 34.9267 10.78 36.4067 8.34C37.9267 5.86 40.0067 4 42.6467 2.76C45.3267 1.52 48.4467 0.899998 52.0067 0.899998C55.5267 0.899998 58.6067 1.52 61.2467 2.76C63.9267 4 66.0267 5.86 67.5467 8.34C69.0667 10.78 69.8667 13.8 69.9467 17.4C70.0267 19.16 70.0667 20.9 70.0667 22.62C70.0667 24.3 70.0267 26 69.9467 27.72C69.8267 31.4 69.0267 34.46 67.5467 36.9C66.0667 39.3 64.0067 41.1 61.3667 42.3C58.7267 43.5 55.6067 44.1 52.0067 44.1ZM52.0067 36.36C54.3267 36.36 56.2267 35.66 57.7067 34.26C59.2267 32.82 60.0267 30.54 60.1067 27.42C60.1867 25.66 60.2267 24.02 60.2267 22.5C60.2267 20.94 60.1867 19.3 60.1067 17.58C60.0667 15.5 59.6867 13.8 58.9667 12.48C58.2467 11.16 57.2867 10.2 56.0867 9.6C54.9267 8.96 53.5667 8.64 52.0067 8.64C50.4467 8.64 49.0667 8.96 47.8667 9.6C46.6667 10.2 45.7067 11.16 44.9867 12.48C44.3067 13.8 43.9267 15.5 43.8467 17.58C43.8067 19.3 43.7867 20.94 43.7867 22.5C43.7867 24.02 43.8067 25.66 43.8467 27.42C43.9667 30.54 44.7667 32.82 46.2467 34.26C47.7267 35.66 49.6467 36.36 52.0067 36.36ZM94.3742 44.1C90.6142 44.1 87.3942 43.48 84.7142 42.24C82.0742 40.96 80.0142 39.12 78.5342 36.72C77.0942 34.28 76.3142 31.34 76.1942 27.9C76.1542 26.18 76.1342 24.34 76.1342 22.38C76.1342 20.42 76.1542 18.56 76.1942 16.8C76.3142 13.44 77.0942 10.58 78.5342 8.22C80.0142 5.86 82.0942 4.06 84.7742 2.82C87.4942 1.54 90.6942 0.899998 94.3742 0.899998C97.3342 0.899998 99.9342 1.28 102.174 2.04C104.414 2.8 106.294 3.8 107.814 5.04C109.334 6.24 110.494 7.56 111.294 9C112.094 10.44 112.514 11.82 112.554 13.14C112.554 13.5 112.434 13.82 112.194 14.1C111.954 14.34 111.634 14.46 111.234 14.46H103.794C103.394 14.46 103.074 14.38 102.834 14.22C102.634 14.06 102.454 13.82 102.294 13.5C102.014 12.78 101.554 12.06 100.914 11.34C100.314 10.58 99.4942 9.94 98.4542 9.42C97.4142 8.9 96.0542 8.64 94.3742 8.64C91.8542 8.64 89.8542 9.3 88.3742 10.62C86.9342 11.94 86.1542 14.1 86.0342 17.1C85.9142 20.54 85.9142 24.04 86.0342 27.6C86.1542 30.72 86.9542 32.96 88.4342 34.32C89.9542 35.68 91.9742 36.36 94.4942 36.36C96.1342 36.36 97.5942 36.08 98.8742 35.52C100.194 34.92 101.234 34 101.994 32.76C102.754 31.52 103.134 29.94 103.134 28.02V26.52H96.5942C96.1942 26.52 95.8542 26.38 95.5742 26.1C95.2942 25.78 95.1542 25.42 95.1542 25.02V21.18C95.1542 20.74 95.2942 20.38 95.5742 20.1C95.8542 19.82 96.1942 19.68 96.5942 19.68H111.294C111.734 19.68 112.094 19.82 112.374 20.1C112.654 20.38 112.794 20.74 112.794 21.18V27.72C112.794 31.16 112.034 34.1 110.514 36.54C109.034 38.98 106.894 40.86 104.094 42.18C101.334 43.46 98.0942 44.1 94.3742 44.1ZM136.792 44.1C133.152 44.1 130.012 43.5 127.372 42.3C124.732 41.1 122.672 39.3 121.192 36.9C119.712 34.46 118.912 31.4 118.792 27.72C118.752 26 118.732 24.3 118.732 22.62C118.732 20.9 118.752 19.16 118.792 17.4C118.912 13.8 119.712 10.78 121.192 8.34C122.712 5.86 124.792 4 127.432 2.76C130.112 1.52 133.232 0.899998 136.792 0.899998C140.312 0.899998 143.392 1.52 146.032 2.76C148.712 4 150.812 5.86 152.332 8.34C153.852 10.78 154.652 13.8 154.732 17.4C154.812 19.16 154.852 20.9 154.852 22.62C154.852 24.3 154.812 26 154.732 27.72C154.612 31.4 153.812 34.46 152.332 36.9C150.852 39.3 148.792 41.1 146.152 42.3C143.512 43.5 140.392 44.1 136.792 44.1ZM136.792 36.36C139.112 36.36 141.012 35.66 142.492 34.26C144.012 32.82 144.812 30.54 144.892 27.42C144.972 25.66 145.012 24.02 145.012 22.5C145.012 20.94 144.972 19.3 144.892 17.58C144.852 15.5 144.472 13.8 143.752 12.48C143.032 11.16 142.072 10.2 140.872 9.6C139.712 8.96 138.352 8.64 136.792 8.64C135.232 8.64 133.852 8.96 132.652 9.6C131.452 10.2 130.492 11.16 129.772 12.48C129.092 13.8 128.712 15.5 128.632 17.58C128.592 19.3 128.572 20.94 128.572 22.5C128.572 24.02 128.592 25.66 128.632 27.42C128.752 30.54 129.552 32.82 131.032 34.26C132.512 35.66 134.432 36.36 136.792 36.36Z" fill="black"/>
</svg>
