<svg width="155" height="44" viewBox="0 0 155 44" fill="none" xmlns="http://www.w3.org/2000/svg">
<path d="M2.08063 43C1.64063 43 1.28063 42.86 1.00063 42.58C0.720625 42.3 0.580625 41.94 0.580625 41.5V2.5C0.580625 2.06 0.720625 1.7 1.00063 1.42C1.28063 1.14 1.64063 0.999997 2.08063 0.999997H8.74063C9.18063 0.999997 9.54063 1.14 9.82063 1.42C10.1006 1.7 10.2406 2.06 10.2406 2.5V34.96H28.8406C29.2806 34.96 29.6406 35.1 29.9206 35.38C30.2006 35.66 30.3406 36.02 30.3406 36.46V41.5C30.3406 41.94 30.2006 42.3 29.9206 42.58C29.6406 42.86 29.2806 43 28.8406 43H2.08063ZM52.0067 43.6C48.3667 43.6 45.2267 43 42.5867 41.8C39.9467 40.6 37.8867 38.8 36.4067 36.4C34.9267 33.96 34.1267 30.9 34.0067 27.22C33.9667 25.5 33.9467 23.8 33.9467 22.12C33.9467 20.4 33.9667 18.66 34.0067 16.9C34.1267 13.3 34.9267 10.28 36.4067 7.84C37.9267 5.36 40.0067 3.5 42.6467 2.26C45.3267 1.02 48.4467 0.399998 52.0067 0.399998C55.5267 0.399998 58.6067 1.02 61.2467 2.26C63.9267 3.5 66.0267 5.36 67.5467 7.84C69.0667 10.28 69.8667 13.3 69.9467 16.9C70.0267 18.66 70.0667 20.4 70.0667 22.12C70.0667 23.8 70.0267 25.5 69.9467 27.22C69.8267 30.9 69.0267 33.96 67.5467 36.4C66.0667 38.8 64.0067 40.6 61.3667 41.8C58.7267 43 55.6067 43.6 52.0067 43.6ZM52.0067 35.86C54.3267 35.86 56.2267 35.16 57.7067 33.76C59.2267 32.32 60.0267 30.04 60.1067 26.92C60.1867 25.16 60.2267 23.52 60.2267 22C60.2267 20.44 60.1867 18.8 60.1067 17.08C60.0667 15 59.6867 13.3 58.9667 11.98C58.2467 10.66 57.2867 9.7 56.0867 9.1C54.9267 8.46 53.5667 8.14 52.0067 8.14C50.4467 8.14 49.0667 8.46 47.8667 9.1C46.6667 9.7 45.7067 10.66 44.9867 11.98C44.3067 13.3 43.9267 15 43.8467 17.08C43.8067 18.8 43.7867 20.44 43.7867 22C43.7867 23.52 43.8067 25.16 43.8467 26.92C43.9667 30.04 44.7667 32.32 46.2467 33.76C47.7267 35.16 49.6467 35.86 52.0067 35.86ZM94.3742 43.6C90.6142 43.6 87.3942 42.98 84.7142 41.74C82.0742 40.46 80.0142 38.62 78.5342 36.22C77.0942 33.78 76.3142 30.84 76.1942 27.4C76.1542 25.68 76.1342 23.84 76.1342 21.88C76.1342 19.92 76.1542 18.06 76.1942 16.3C76.3142 12.94 77.0942 10.08 78.5342 7.72C80.0142 5.36 82.0942 3.56 84.7742 2.32C87.4942 1.04 90.6942 0.399998 94.3742 0.399998C97.3342 0.399998 99.9342 0.779998 102.174 1.54C104.414 2.3 106.294 3.3 107.814 4.54C109.334 5.74 110.494 7.06 111.294 8.5C112.094 9.94 112.514 11.32 112.554 12.64C112.554 13 112.434 13.32 112.194 13.6C111.954 13.84 111.634 13.96 111.234 13.96H103.794C103.394 13.96 103.074 13.88 102.834 13.72C102.634 13.56 102.454 13.32 102.294 13C102.014 12.28 101.554 11.56 100.914 10.84C100.314 10.08 99.4942 9.44 98.4542 8.92C97.4142 8.4 96.0542 8.14 94.3742 8.14C91.8542 8.14 89.8542 8.8 88.3742 10.12C86.9342 11.44 86.1542 13.6 86.0342 16.6C85.9142 20.04 85.9142 23.54 86.0342 27.1C86.1542 30.22 86.9542 32.46 88.4342 33.82C89.9542 35.18 91.9742 35.86 94.4942 35.86C96.1342 35.86 97.5942 35.58 98.8742 35.02C100.194 34.42 101.234 33.5 101.994 32.26C102.754 31.02 103.134 29.44 103.134 27.52V26.02H96.5942C96.1942 26.02 95.8542 25.88 95.5742 25.6C95.2942 25.28 95.1542 24.92 95.1542 24.52V20.68C95.1542 20.24 95.2942 19.88 95.5742 19.6C95.8542 19.32 96.1942 19.18 96.5942 19.18H111.294C111.734 19.18 112.094 19.32 112.374 19.6C112.654 19.88 112.794 20.24 112.794 20.68V27.22C112.794 30.66 112.034 33.6 110.514 36.04C109.034 38.48 106.894 40.36 104.094 41.68C101.334 42.96 98.0942 43.6 94.3742 43.6ZM136.792 43.6C133.152 43.6 130.012 43 127.372 41.8C124.732 40.6 122.672 38.8 121.192 36.4C119.712 33.96 118.912 30.9 118.792 27.22C118.752 25.5 118.732 23.8 118.732 22.12C118.732 20.4 118.752 18.66 118.792 16.9C118.912 13.3 119.712 10.28 121.192 7.84C122.712 5.36 124.792 3.5 127.432 2.26C130.112 1.02 133.232 0.399998 136.792 0.399998C140.312 0.399998 143.392 1.02 146.032 2.26C148.712 3.5 150.812 5.36 152.332 7.84C153.852 10.28 154.652 13.3 154.732 16.9C154.812 18.66 154.852 20.4 154.852 22.12C154.852 23.8 154.812 25.5 154.732 27.22C154.612 30.9 153.812 33.96 152.332 36.4C150.852 38.8 148.792 40.6 146.152 41.8C143.512 43 140.392 43.6 136.792 43.6ZM136.792 35.86C139.112 35.86 141.012 35.16 142.492 33.76C144.012 32.32 144.812 30.04 144.892 26.92C144.972 25.16 145.012 23.52 145.012 22C145.012 20.44 144.972 18.8 144.892 17.08C144.852 15 144.472 13.3 143.752 11.98C143.032 10.66 142.072 9.7 140.872 9.1C139.712 8.46 138.352 8.14 136.792 8.14C135.232 8.14 133.852 8.46 132.652 9.1C131.452 9.7 130.492 10.66 129.772 11.98C129.092 13.3 128.712 15 128.632 17.08C128.592 18.8 128.572 20.44 128.572 22C128.572 23.52 128.592 25.16 128.632 26.92C128.752 30.04 129.552 32.32 131.032 33.76C132.512 35.16 134.432 35.86 136.792 35.86Z" fill="white"/>
</svg>
