<svg width="24" height="24" viewBox="0 0 24 24" fill="none" xmlns="http://www.w3.org/2000/svg">
<path fill-rule="evenodd" clip-rule="evenodd" d="M10.2966 19.7501H6.61237C5.41776 19.7462 4.44974 18.7283 4.44237 17.4673V9.73137C4.44237 9.30942 4.62289 8.91081 4.92868 8.64151L5.57987 8.13206C5.8175 7.86665 5.83868 7.46026 5.63697 7.16373C5.4325 6.86817 5.05763 6.76901 4.74539 6.92456L4.08316 7.44859C3.40987 7.99595 3.01474 8.83498 3 9.73137V17.4751C3.00368 19.579 4.61921 21.2843 6.61237 21.2882H10.2966C10.6954 21.2882 11.0159 20.946 11.0159 20.5289C11.0159 20.1069 10.6954 19.7657 10.2966 19.7657V19.7501Z" fill="#4343FE"/>
<path fill-rule="evenodd" clip-rule="evenodd" d="M20.3104 9.71385C20.2993 8.82816 19.9143 7.98913 19.2595 7.43108L13.7267 2.7751C12.51 1.74163 10.7756 1.74163 9.55985 2.7751L7.80801 4.11969C7.47643 4.36955 7.4009 4.85274 7.63853 5.20177C7.87616 5.54691 8.33301 5.62663 8.66366 5.37677L10.4413 3.97483C11.1395 3.36719 12.1471 3.36719 12.8452 3.97483L18.378 8.6308C18.6985 8.90108 18.8855 9.30358 18.8929 9.73233V17.4761C18.8929 18.7371 17.9212 19.7589 16.7302 19.7589H15.0862C14.9176 19.7589 14.7841 19.614 14.7841 19.4361V15.9458C14.7841 14.8326 13.9312 13.9284 12.8775 13.9255H10.4735C9.96603 13.9255 9.48064 14.1375 9.12143 14.5176C8.7613 14.8977 8.55959 15.4101 8.55959 15.9458V17.2826C8.55959 17.6997 8.8838 18.0419 9.27893 18.0419C9.67866 18.0419 10.0029 17.6997 10.0029 17.2826V15.9458C9.99919 15.8126 10.0452 15.6872 10.1355 15.5919C10.2221 15.5015 10.3409 15.448 10.4662 15.448H12.8701C13.1252 15.448 13.3343 15.6687 13.3343 15.938V19.4361C13.338 20.4569 14.1218 21.2814 15.0862 21.2814H16.687C18.6838 21.2814 20.2993 19.5722 20.2993 17.4683L20.3104 9.71385Z" fill="#4343FE"/>
</svg>
