<svg width="24" height="24" viewBox="0 0 24 24" fill="none" xmlns="http://www.w3.org/2000/svg">
<path fill-rule="evenodd" clip-rule="evenodd" d="M12.2827 4.39537C11.3605 4.39173 10.4785 4.75895 9.82693 5.4132C9.17542 6.06836 8.80911 6.95862 8.80911 7.8835C8.80546 9.2968 9.64925 10.5743 10.9477 11.1192C12.2435 11.6605 13.7388 11.3653 14.7347 10.3647C15.728 9.36787 16.0268 7.86254 15.4901 6.55586C14.9525 5.25009 13.685 4.39537 12.2827 4.39537ZM10.4356 3.37025C12.2471 2.61577 14.3365 3.03584 15.7207 4.43455C17.1094 5.82962 17.5221 7.93362 16.7677 9.75605C16.0168 11.5821 14.2436 12.7713 12.2827 12.7676C9.60642 12.7603 7.43864 10.578 7.43864 7.8835L7.44593 7.67392C7.52429 5.78133 8.68791 4.10014 10.4356 3.37025ZM10.3609 14.6329C11.6703 14.5226 12.9879 14.5226 14.2974 14.6329C15.0127 14.683 15.7243 14.786 16.4223 14.9463C17.9349 15.2525 18.9245 15.8539 19.3373 16.736C19.6681 17.4658 19.658 18.3096 19.3127 19.0359C18.8926 19.9188 17.903 20.5202 16.3649 20.8337C15.6715 20.9895 14.9625 21.0897 14.2472 21.1362C13.4609 21.2246 12.792 21.2246 12.1688 21.2246H11.9236C11.571 21.1854 11.304 20.8865 11.304 20.5312C11.304 20.1749 11.571 19.876 11.9236 19.8368H12.4676C13.0125 19.8295 13.5638 19.8049 14.1124 19.7585C14.7603 19.7156 15.4045 19.6227 16.0414 19.4842C17.1303 19.2454 17.8174 18.9001 18.0315 18.4417C18.1983 18.0928 18.1983 17.6864 18.0315 17.3383C17.8174 16.8717 17.1303 16.5118 16.0624 16.2949C15.4181 16.1491 14.7639 16.0525 14.1051 16.0134C12.874 15.8995 11.6348 15.8995 10.4037 16.0134C9.75221 16.0562 9.10434 16.1455 8.4674 16.284C7.37394 16.5264 6.69782 16.8717 6.47731 17.3273C6.3953 17.5014 6.35612 17.69 6.35612 17.8823C6.35612 18.0745 6.3953 18.2668 6.47731 18.4417C6.85455 18.9648 7.43135 19.3028 8.06829 19.3812L8.16123 19.4058C8.37081 19.4769 8.53483 19.6482 8.59862 19.8687C8.67334 20.1138 8.60226 20.3845 8.41728 20.5667C8.23231 20.748 7.96168 20.8082 7.71929 20.7262C6.69053 20.5594 5.79025 19.9434 5.25628 19.0431C4.91457 18.3169 4.91457 17.4695 5.25628 16.7432C5.67999 15.8357 6.66593 15.2525 8.18948 14.939C8.90478 14.7823 9.63102 14.683 10.3609 14.6329Z" fill="#2D4796"/>
</svg>
