<svg width="18" height="20" viewBox="0 0 18 20" fill="none" xmlns="http://www.w3.org/2000/svg">
<path fill-rule="evenodd" clip-rule="evenodd" d="M8.64085 0C5.57085 0 2.12785 2.16398 1.73885 5.64093V7.45291C1.60585 8.10491 1.29685 8.7149 0.851847 9.21089C0.824846 9.24189 0.799845 9.27289 0.781845 9.30889C0.374846 9.92189 0.140846 10.6289 0.105846 11.3589L0.132845 11.5429C0.101845 12.5429 0.433846 13.5228 1.07485 14.2968C1.88685 15.1758 2.99985 15.7268 4.19585 15.8398C7.14485 16.1598 10.1218 16.1598 13.0668 15.8398C14.2468 15.7188 15.3398 15.1678 16.1368 14.2968C16.7858 13.5348 17.1288 12.5589 17.1058 11.5629V11.4379C17.0548 10.6879 16.8048 9.96089 16.3758 9.33589L16.3048 9.24589C15.8598 8.7459 15.5548 8.14091 15.4178 7.48791V5.67593L15.3718 5.57394C15.2188 5.31594 14.9298 5.16794 14.6258 5.19894C14.2858 5.23794 14.0078 5.49594 13.9538 5.83193V7.64491V7.74191C14.1408 8.6519 14.5628 9.49589 15.1798 10.1879C15.4178 10.5659 15.5508 10.9959 15.5708 11.4379V11.6329C15.5898 12.2539 15.3828 12.8629 14.9848 13.3478C14.4338 13.9138 13.6958 14.2618 12.9068 14.3318C10.0548 14.6408 7.17485 14.6408 4.32085 14.3318C3.50785 14.2578 2.75285 13.8948 2.19985 13.3048C1.82085 12.8319 1.62485 12.2419 1.64085 11.6409V11.4379C1.66085 10.9919 1.78885 10.5629 2.02385 10.1799C2.66385 9.49189 3.11385 8.6479 3.31685 7.73391C3.32085 7.70291 3.32085 7.66791 3.31685 7.63691V5.81593C3.57485 3.15996 6.24585 1.51198 8.57085 1.51198C9.55885 1.51198 10.5318 1.76198 11.3908 2.24197L11.4968 2.29697C11.7148 2.38297 11.9608 2.36697 12.1678 2.24997C12.4068 2.10898 12.5548 1.85198 12.5468 1.57798C12.5398 1.30098 12.3828 1.05099 12.1368 0.925989C11.0708 0.323996 9.86785 0.00799991 8.64085 0ZM6.96484 17.5702C6.68783 17.3202 6.26184 17.3052 5.96484 17.5512C5.64083 17.8162 5.59383 18.2972 5.86384 18.6172C6.52783 19.4802 7.55383 19.9882 8.64884 20.0002L8.86784 19.9922C9.87584 19.9182 10.8088 19.4222 11.4258 18.6172L11.4928 18.5272C11.6838 18.2112 11.6218 17.7932 11.3248 17.5512C11.0008 17.2812 10.5158 17.3282 10.2468 17.6522C10.1288 17.8092 9.98884 17.9452 9.82884 18.0622C9.40684 18.3752 8.87584 18.5082 8.35584 18.4302C7.83184 18.3522 7.36384 18.0742 7.04984 17.6522H7.04284L6.96484 17.5702Z" fill="black" fill-opacity="0.5"/>
</svg>
