<svg width="16" height="16" viewBox="0 0 16 16" fill="none" xmlns="http://www.w3.org/2000/svg">
<path d="M10.667 2V4.66667M5.33366 2V4.66667M2.66699 7.33333H13.3337M2.66699 4.66667C2.66699 4.31304 2.80747 3.97391 3.05752 3.72386C3.30756 3.47381 3.6467 3.33333 4.00033 3.33333H12.0003C12.3539 3.33333 12.6931 3.47381 12.9431 3.72386C13.1932 3.97391 13.3337 4.31304 13.3337 4.66667V12.6667C13.3337 13.0203 13.1932 13.3594 12.9431 13.6095C12.6931 13.8595 12.3539 14 12.0003 14H4.00033C3.6467 14 3.30756 13.8595 3.05752 13.6095C2.80747 13.3594 2.66699 13.0203 2.66699 12.6667V4.66667ZM7.33366 10.6667C7.33366 10.8435 7.4039 11.013 7.52892 11.1381C7.65395 11.2631 7.82351 11.3333 8.00033 11.3333C8.17714 11.3333 8.34671 11.2631 8.47173 11.1381C8.59675 11.013 8.66699 10.8435 8.66699 10.6667C8.66699 10.4899 8.59675 10.3203 8.47173 10.1953C8.34671 10.0702 8.17714 10 8.00033 10C7.82351 10 7.65395 10.0702 7.52892 10.1953C7.4039 10.3203 7.33366 10.4899 7.33366 10.6667Z" stroke="#ACB5BB" stroke-width="1.3" stroke-linecap="round" stroke-linejoin="round"/>
</svg>
