<svg width="53" height="47" viewBox="0 0 53 47" fill="none" xmlns="http://www.w3.org/2000/svg">
<path d="M33.4697 25.8679C33.4697 21.9302 30.2776 18.7381 26.3399 18.7381C22.4021 18.7381 19.21 21.9302 19.21 25.8679C19.21 29.8056 22.4021 32.9978 26.3399 32.9978C30.2776 32.9978 33.4697 29.8056 33.4697 25.8679ZM34.3799 25.8679C34.3799 30.3083 30.7803 33.908 26.3399 33.908C21.8995 33.908 18.2998 30.3083 18.2998 25.8679C18.2998 21.4275 21.8995 17.8279 26.3399 17.8279C30.7803 17.8279 34.3799 21.4275 34.3799 25.8679Z" fill="#666666"/>
<path d="M51.1677 26.7884C51.1677 22.9041 51.1674 20.0257 50.9337 17.77C50.7008 15.5224 50.2403 13.9434 49.3533 12.6407L49.3527 12.6401C48.6166 11.5565 47.6824 10.6169 46.599 9.86801L46.3803 9.72105C44.6661 8.59889 42.492 8.17144 39.0176 8.02036V8.01977C37.133 8.01019 35.5312 6.61279 35.1652 4.81216L35.119 4.60891C34.5962 2.52756 32.6867 1.03983 30.4709 1.03983H22.2056C21.1084 1.03247 20.0419 1.40432 19.1871 2.09225C18.3323 2.78017 17.7411 3.74233 17.5136 4.81572L17.513 4.81513C17.1458 6.61432 15.5455 8.0103 13.6619 8.01977C10.1844 8.17088 8.01091 8.59692 6.29976 9.72105H6.29917C5.12611 10.4893 4.11562 11.4811 3.32622 12.6401C2.43914 13.9429 1.97872 15.5224 1.74582 17.77C1.5121 20.0257 1.51176 22.9041 1.51176 26.7884C1.51174 27.0397 1.30799 27.2435 1.05666 27.2435C0.80533 27.2435 0.601584 27.0397 0.601563 26.7884C0.601563 22.9234 0.601255 19.9899 0.840963 17.6764C1.08151 15.3549 1.56766 13.6064 2.57424 12.1281L2.73779 11.8946C3.51352 10.8139 4.46975 9.87501 5.56437 9.11899L5.80081 8.95959C7.73024 7.69231 10.1178 7.26305 13.6228 7.11076L13.6329 7.11017H13.6423C15.0814 7.11017 16.3371 6.03466 16.6224 4.63084L16.623 4.62669C16.894 3.34817 17.5982 2.2023 18.6164 1.38293C19.6339 0.564184 20.9027 0.122159 22.2086 0.130231V0.129639H30.4709C33.0949 0.129639 35.3758 1.89284 36.002 4.38669L36.0571 4.63024V4.63084C36.3424 6.03468 37.5981 7.11017 39.0371 7.11017H39.0472L39.0567 7.11076C42.5601 7.26308 44.9471 7.69517 46.8787 8.95959H46.8793C48.1548 9.79593 49.2521 10.8723 50.1052 12.1281C51.1118 13.6064 51.5986 15.3548 51.8391 17.6764C52.0788 19.9899 52.0779 22.9234 52.0779 26.7884C52.0779 30.6533 52.0788 33.586 51.8391 35.8992C51.5986 38.2204 51.1122 39.9686 50.1058 41.4481H50.1052C49.2484 42.7061 48.152 43.7833 46.8787 44.6172L46.8781 44.6166C45.3743 45.6023 43.597 46.0791 41.235 46.3149C38.8798 46.55 35.8937 46.5496 31.9576 46.5496H20.7218C16.7857 46.5496 13.7996 46.55 11.4445 46.3149C9.08223 46.0791 7.30465 45.6026 5.80081 44.6166H5.80022C4.52777 43.7817 3.43231 42.7043 2.57661 41.4457L2.57484 41.4433C2.06875 40.6895 1.67949 39.8644 1.41932 38.996L1.31561 38.6215L1.30673 38.5759C1.27287 38.3477 1.41672 38.1266 1.64509 38.0686C1.87341 38.0108 2.10528 38.1365 2.18433 38.3531L2.19796 38.3981L2.29158 38.7347C2.52535 39.5149 2.87471 40.2563 3.32918 40.9337C4.11769 42.0935 5.12718 43.0864 6.29976 43.8557L6.5522 44.0145C7.83398 44.7839 9.38605 45.1949 11.5352 45.4094C13.8346 45.6389 16.7673 45.6394 20.7218 45.6394H31.9576C35.9124 45.6394 38.8455 45.639 41.1449 45.4094C43.4371 45.1806 45.05 44.728 46.3803 43.8557L46.5984 43.7088C47.6789 42.9624 48.6132 42.0227 49.3533 40.9361L49.5144 40.6884C50.2969 39.4321 50.7153 37.9124 50.9337 35.8056C51.1674 33.5502 51.1677 30.6727 51.1677 26.7884ZM44.0379 17.8281C44.2892 17.8281 44.493 18.0318 44.493 18.2832C44.4929 18.5345 44.2892 18.7383 44.0379 18.7383H41.5099C41.2586 18.7383 41.0549 18.5345 41.0548 18.2832C41.0548 18.0318 41.2586 17.8281 41.5099 17.8281H44.0379Z" fill="#666666"/>
</svg>
