<svg width="20" height="14" viewBox="0 0 20 14" fill="none" xmlns="http://www.w3.org/2000/svg">
<path d="M19.6203 3.03595H17.9073C17.8128 3.0374 17.7221 3.07365 17.6529 3.13768C17.1059 2.26994 16.5397 1.57529 16.1004 1.13877C14.5723 -0.379589 5.40398 -0.379589 3.87592 1.13877C3.43813 1.57454 2.87504 2.26463 2.33105 3.12629C2.26562 3.07003 2.18226 3.03856 2.09573 3.03747H0.382015C0.171907 3.03747 0 3.20904 0 3.41706V4.18383C0 4.39184 0.168086 4.59379 0.374374 4.63402L1.41345 4.83141C0.516484 6.81894 -0.0122245 9.29234 0.81904 11.7703V13.2408C0.81904 13.6606 0.926004 14 1.05818 14H3.01562C3.1478 14 3.25477 13.6606 3.25477 13.2408V12.0383C5.01051 12.2053 7.49513 12.3875 9.98739 12.3875C12.4567 12.3875 14.9689 12.2083 16.7215 12.0428V13.2408C16.7215 13.6606 16.8285 14 16.9599 14H18.9174C19.0488 14 19.1557 13.6606 19.1557 13.2408L19.1542 11.7695C19.9847 9.29462 19.4575 6.82273 18.5621 4.8352L19.6256 4.63402C19.7294 4.61057 19.8225 4.55359 19.8902 4.47199C19.958 4.3904 19.9966 4.28879 20 4.18307V3.4163C20 3.31602 19.9601 3.21981 19.8889 3.14869C19.8178 3.07757 19.7212 3.03731 19.6203 3.03671V3.03595ZM3.20663 9.20579C2.84742 9.19393 2.50691 9.0438 2.25703 8.78712C2.00714 8.53043 1.86745 8.18729 1.86745 7.83016C1.86745 7.47303 2.00714 7.12989 2.25703 6.8732C2.50691 6.61652 2.84742 6.46639 3.20663 6.45453C3.56584 6.46649 3.90631 6.61671 4.15612 6.87346C4.40594 7.13022 4.54554 7.4734 4.54544 7.83053C4.54534 8.18766 4.40555 8.53076 4.15559 8.78738C3.90563 9.044 3.56585 9.19403 3.20663 9.20579ZM2.04225 5.26566C2.77572 3.59774 3.79723 2.29196 4.41609 1.67551C4.86228 1.23139 6.96795 0.759178 9.98739 0.759178C13.0068 0.759178 15.1125 1.23215 15.5595 1.67627C16.1783 2.2912 17.1991 3.59698 17.9325 5.26566C16.3036 5.44482 13.1306 5.03031 9.98816 5.03031C6.8457 5.03031 3.67269 5.44482 2.04225 5.26566ZM16.7682 9.20579C16.4089 9.19393 16.0684 9.0438 15.8186 8.78712C15.5687 8.53043 15.429 8.18729 15.429 7.83016C15.429 7.47303 15.5687 7.12989 15.8186 6.8732C16.0684 6.61652 16.4089 6.46639 16.7682 6.45453C17.1274 6.46649 17.4678 6.61671 17.7176 6.87346C17.9675 7.13022 18.1071 7.4734 18.107 7.83053C18.1069 8.18766 17.9671 8.53076 17.7171 8.78738C17.4672 9.044 17.1274 9.19403 16.7682 9.20579Z" fill="black" fill-opacity="0.5"/>
</svg>
