<svg width="20" height="15" viewBox="0 0 20 15" fill="none" xmlns="http://www.w3.org/2000/svg">
<path d="M0 0H20V15H0V0ZM18 13V2H2V13H18ZM15 3C15 3.53043 15.2107 4.03914 15.5858 4.41421C15.9609 4.78929 16.4696 5 17 5V10C16.4696 10 15.9609 10.2107 15.5858 10.5858C15.2107 10.9609 15 11.4696 15 12H5C5 11.4696 4.78929 10.9609 4.41421 10.5858C4.03914 10.2107 3.53043 10 3 10V5C3.53043 5 4.03914 4.78929 4.41421 4.41421C4.78929 4.03914 5 3.53043 5 3H15ZM15 8V7C15 5.9 14.33 5 13.5 5C12.67 5 12 5.9 12 7V8C12 9.1 12.67 10 13.5 10C14.33 10 15 9.1 15 8ZM13.5 6C13.6326 6 13.7598 6.05268 13.8536 6.14645C13.9473 6.24021 14 6.36739 14 6.5V8.5C14 8.63261 13.9473 8.75979 13.8536 8.85355C13.7598 8.94732 13.6326 9 13.5 9C13.3674 9 13.2402 8.94732 13.1464 8.85355C13.0527 8.75979 13 8.63261 13 8.5V6.5C13 6.36739 13.0527 6.24021 13.1464 6.14645C13.2402 6.05268 13.3674 6 13.5 6ZM11 8V7C11 5.9 10.33 5 9.5 5C8.67 5 8 5.9 8 7V8C8 9.1 8.67 10 9.5 10C10.33 10 11 9.1 11 8ZM9.5 6C9.63261 6 9.75979 6.05268 9.85355 6.14645C9.94732 6.24021 10 6.36739 10 6.5V8.5C10 8.63261 9.94732 8.75979 9.85355 8.85355C9.75979 8.94732 9.63261 9 9.5 9C9.36739 9 9.24021 8.94732 9.14645 8.85355C9.05268 8.75979 9 8.63261 9 8.5V6.5C9 6.36739 9.05268 6.24021 9.14645 6.14645C9.24021 6.05268 9.36739 6 9.5 6ZM6 10H7V5H6L5 5.5V6.5L6 6V10Z" fill="#558B2F"/>
</svg>
