<svg width="32" height="32" viewBox="0 0 32 32" fill="none" xmlns="http://www.w3.org/2000/svg">
<path fill-rule="evenodd" clip-rule="evenodd" d="M16 32C7.163 32 0 24.837 0 16C0 7.163 7.163 0 16 0C24.837 0 32 7.163 32 16C32 24.837 24.837 32 16 32ZM16.28 23.325C17.308 24.036 18.612 24.459 20.024 24.459C20.3753 24.459 20.7217 24.4333 21.063 24.382C21.18 24.43 21.293 24.489 21.432 24.569C21.732 24.745 22.132 25.015 22.632 25.379C23.041 25.678 23.62 25.389 23.62 24.886V23.425C23.83 23.289 24.0283 23.1417 24.215 22.983C25.345 22.025 26 20.715 26 19.31C26 18.385 25.72 17.52 25.228 16.773C25.0724 17.3033 24.8623 17.816 24.601 18.303C24.7057 18.6263 24.7587 18.962 24.76 19.31C24.76 20.344 24.272 21.32 23.408 22.052C23.185 22.2402 22.945 22.4073 22.691 22.551C22.5968 22.604 22.5183 22.6811 22.4636 22.7744C22.409 22.8677 22.3801 22.9739 22.38 23.082V23.706C21.787 23.326 21.38 23.147 21.07 23.147C21.0352 23.1482 21.0005 23.1512 20.966 23.156C20.0972 23.3011 19.2065 23.243 18.364 22.986C17.6816 23.1629 16.9843 23.2768 16.281 23.326L16.28 23.325ZM8.814 20.403C9.14319 20.6827 9.49209 20.9384 9.858 21.168V23.66C9.858 24.29 10.583 24.65 11.094 24.276C12.504 23.246 13.484 22.664 13.729 22.606C14.2957 22.696 14.8717 22.741 15.457 22.741C20.657 22.741 24.915 19.134 24.915 14.621C24.915 10.107 20.656 6.5 15.457 6.5C10.258 6.5 6 10.107 6 14.62C6 16.83 7.03 18.891 8.814 20.403ZM13.763 21.069C13.26 21.069 12.525 21.424 11.409 22.173V20.736C11.408 20.6008 11.3714 20.4683 11.303 20.3517C11.2345 20.2352 11.1366 20.1387 11.019 20.072C10.5958 19.8313 10.1955 19.5525 9.823 19.239C8.37 18.01 7.55 16.366 7.55 14.62C7.55 11.01 11.066 8.032 15.457 8.032C19.849 8.032 23.364 11.01 23.364 14.62C23.364 18.23 19.849 21.209 15.457 21.209C14.9263 21.209 14.405 21.1657 13.893 21.079C13.8499 21.0728 13.8065 21.0695 13.763 21.069ZM11.426 16.153C12.111 16.153 12.666 15.603 12.666 14.927C12.666 14.25 12.111 13.701 11.426 13.701C10.741 13.701 10.186 14.25 10.186 14.927C10.186 15.604 10.741 16.153 11.426 16.153ZM15.457 16.153C16.142 16.153 16.697 15.603 16.697 14.927C16.697 14.25 16.142 13.701 15.457 13.701C14.772 13.701 14.217 14.25 14.217 14.927C14.217 15.604 14.772 16.153 15.457 16.153ZM19.488 16.153C20.173 16.153 20.728 15.603 20.728 14.927C20.728 14.25 20.173 13.701 19.488 13.701C18.803 13.701 18.248 14.25 18.248 14.927C18.248 15.604 18.803 16.153 19.488 16.153Z" fill="black"/>
</svg>
