<svg width="21" height="22" viewBox="0 0 21 22" fill="none" xmlns="http://www.w3.org/2000/svg">
<path d="M6.796 14.75L14.296 7.25M10.273 1.25L12.925 2.84L16.0045 3.1115L17.215 5.957L19.546 7.985L18.853 11L19.546 14.0135L17.215 16.043L16.0045 18.8885L12.925 19.16L10.273 20.75L7.6225 19.16L4.5415 18.8885L3.3325 16.043L1 14.0135L1.693 11L1 7.9865L3.3325 5.957L4.5415 3.1115L7.6225 2.84L10.273 1.25ZM9.046 8.75C9.046 9.14782 8.88796 9.52936 8.60666 9.81066C8.32536 10.092 7.94383 10.25 7.546 10.25C7.14818 10.25 6.76664 10.092 6.48534 9.81066C6.20404 9.52936 6.046 9.14782 6.046 8.75C6.046 8.35218 6.20404 7.97064 6.48534 7.68934C6.76664 7.40804 7.14818 7.25 7.546 7.25C7.94383 7.25 8.32536 7.40804 8.60666 7.68934C8.88796 7.97064 9.046 8.35218 9.046 8.75ZM15.046 14C15.046 14.3978 14.888 14.7794 14.6067 15.0607C14.3254 15.342 13.9438 15.5 13.546 15.5C13.1482 15.5 12.7666 15.342 12.4853 15.0607C12.204 14.7794 12.046 14.3978 12.046 14C12.046 13.6022 12.204 13.2206 12.4853 12.9393C12.7666 12.658 13.1482 12.5 13.546 12.5C13.9438 12.5 14.3254 12.658 14.6067 12.9393C14.888 13.2206 15.046 13.6022 15.046 14Z" stroke="#2563EB" stroke-width="1.5"/>
</svg>
