<svg width="20" height="20" viewBox="0 0 20 20" fill="none" xmlns="http://www.w3.org/2000/svg">
<path fill-rule="evenodd" clip-rule="evenodd" d="M17.8791 4.51376C17.9583 4.63393 17.9935 4.77775 17.979 4.92092C17.9644 5.06409 17.9008 5.19784 17.7991 5.29959L10.1382 12.9596C10.0599 13.0379 9.96209 13.094 9.85491 13.1221L6.66408 13.9554C6.5586 13.9829 6.44777 13.9824 6.34257 13.9538C6.23738 13.9253 6.14148 13.8697 6.06441 13.7926C5.98733 13.7155 5.93175 13.6196 5.90319 13.5144C5.87462 13.4092 5.87407 13.2984 5.90158 13.1929L6.73491 10.0029C6.75983 9.90739 6.80566 9.81859 6.86908 9.74293L14.5582 2.05876C14.6754 1.94172 14.8343 1.87598 14.9999 1.87598C15.1655 1.87598 15.3244 1.94172 15.4416 2.05876L17.7991 4.41543C17.8282 4.44613 17.8549 4.479 17.8791 4.51376ZM16.4732 4.85709L14.9999 3.38459L7.90158 10.4829L7.38075 12.4771L9.37491 11.9563L16.4732 4.85709Z" fill="#1A4DBF"/>
<path d="M16.3674 14.3001C16.5952 12.3534 16.6679 10.3916 16.5849 8.4334C16.583 8.38725 16.5906 8.34119 16.6074 8.29815C16.6242 8.25512 16.6497 8.21604 16.6824 8.1834L17.5024 7.3634C17.5248 7.34086 17.5533 7.32528 17.5843 7.31852C17.6154 7.31176 17.6477 7.31411 17.6775 7.32528C17.7072 7.33646 17.7331 7.35599 17.752 7.38153C17.7709 7.40706 17.7821 7.43752 17.7841 7.46923C17.938 9.79527 17.8794 12.1305 17.6091 14.4459C17.4124 16.1309 16.0591 17.4517 14.3816 17.6392C11.4694 17.9615 8.53048 17.9615 5.61826 17.6392C3.9416 17.4517 2.58743 16.1309 2.39076 14.4459C2.04585 11.492 2.04585 8.50809 2.39076 5.55423C2.58743 3.86923 3.94076 2.5484 5.61826 2.3609C7.82864 2.11677 10.0555 2.0574 12.2758 2.1834C12.3075 2.18568 12.338 2.19702 12.3635 2.21607C12.389 2.23513 12.4086 2.2611 12.4198 2.29091C12.431 2.32073 12.4335 2.35313 12.4269 2.38429C12.4202 2.41545 12.4048 2.44406 12.3824 2.46673L11.5549 3.2934C11.5226 3.32577 11.4839 3.35113 11.4413 3.36791C11.3987 3.38468 11.3532 3.39251 11.3074 3.3909C9.45473 3.32744 7.59986 3.39846 5.75743 3.6034C5.21905 3.66299 4.71647 3.90233 4.33089 4.28277C3.94531 4.66321 3.69924 5.16253 3.63243 5.70006C3.29814 8.55699 3.29814 11.4431 3.63243 14.3001C3.69924 14.8376 3.94531 15.3369 4.33089 15.7174C4.71647 16.0978 5.21905 16.3371 5.75743 16.3967C8.55326 16.7092 11.4466 16.7092 14.2433 16.3967C14.7816 16.3371 15.2842 16.0978 15.6698 15.7174C16.0554 15.3369 16.3006 14.8376 16.3674 14.3001Z" fill="#1A4DBF"/>
</svg>
