<svg width="16" height="20" viewBox="0 0 16 20" fill="none" xmlns="http://www.w3.org/2000/svg">
<path d="M2.94901 20H13.051C15.0202 20 16 19.0205 16 17.0802V8.61015C16 7.40657 15.8669 6.88438 15.1059 6.1194L9.8548 0.886368C9.13236 0.158408 8.54224 0 7.46751 0H2.94901C0.989499 0 0 0.988657 0 2.92935V17.0802C0 19.0297 0.989499 20 2.94901 20ZM3.02491 18.4983C2.04515 18.4983 1.53133 17.9849 1.53133 17.0523V2.95721C1.53133 2.03383 2.04515 1.50169 3.03465 1.50169H7.25808V6.92179C7.25808 8.09711 7.86688 8.67542 9.04632 8.67542H14.4687V17.0523C14.4687 17.9849 13.9642 18.4983 12.9751 18.4983H3.02491ZM9.2176 7.26647C8.84663 7.26647 8.69403 7.11761 8.69403 6.74428V1.79104L14.1732 7.26687L9.2176 7.26647ZM11.5006 11.2406H4.28025C3.93811 11.2406 3.69093 11.4925 3.69093 11.8098C3.69093 12.1361 3.93851 12.3881 4.28066 12.3881H11.5006C11.5784 12.3893 11.6556 12.3752 11.7277 12.3466C11.7999 12.3179 11.8654 12.2754 11.9204 12.2214C11.9754 12.1675 12.0188 12.1032 12.048 12.0325C12.0772 11.9618 12.0916 11.886 12.0903 11.8098C12.0903 11.4925 11.8334 11.2406 11.5006 11.2406ZM11.5006 14.4963H4.28025C3.93811 14.4963 3.69093 14.7574 3.69093 15.0838C3.69093 15.401 3.93851 15.6438 4.28066 15.6438H11.5006C11.8334 15.6438 12.0903 15.401 12.0903 15.0838C12.0903 14.7574 11.8334 14.4963 11.5006 14.4963Z" fill="black" fill-opacity="0.5"/>
</svg>
