<svg width="18" height="20" viewBox="0 0 18 20" fill="none" xmlns="http://www.w3.org/2000/svg">
<path d="M8.90639 0L0.334961 2.85714V11.4286C0.334961 16.1629 4.17201 20 8.90639 20C13.6408 20 17.4778 16.1629 17.4778 11.4286V2.85714L8.90639 0ZM15.8707 11.4286C15.8707 15.2746 12.7524 18.3929 8.90639 18.3929C5.06041 18.3929 1.9421 15.2746 1.9421 11.4286V4.0625L8.90639 1.60714L15.8707 4.0625V11.4286Z" fill="black" fill-opacity="0.5"/>
<path d="M5.92398 9.17662C5.8495 9.1018 5.76098 9.04243 5.66349 9.00192C5.566 8.96141 5.46147 8.94055 5.3559 8.94055C5.25033 8.94055 5.1458 8.96141 5.04831 9.00192C4.95083 9.04243 4.8623 9.1018 4.78782 9.17662C4.713 9.2511 4.65363 9.33962 4.61312 9.43711C4.57261 9.5346 4.55176 9.63913 4.55176 9.7447C4.55176 9.85027 4.57261 9.9548 4.61312 10.0523C4.65363 10.1498 4.713 10.2383 4.78782 10.3128L7.67622 13.2012L7.72309 13.248C7.79354 13.3186 7.87722 13.3746 7.96933 13.4128C8.06145 13.451 8.1602 13.4707 8.25992 13.4707C8.35965 13.4707 8.45839 13.451 8.55051 13.4128C8.64262 13.3746 8.7263 13.3186 8.79675 13.248L13.7856 8.25921C13.8562 8.18876 13.9122 8.10508 13.9504 8.01296C13.9886 7.92085 14.0082 7.8221 14.0082 7.72238C14.0082 7.62265 13.9886 7.52391 13.9504 7.43179C13.9122 7.33967 13.8562 7.256 13.7856 7.18555L13.7231 7.12305C13.6526 7.05247 13.569 6.99647 13.4768 6.95826C13.3847 6.92006 13.286 6.90039 13.1863 6.90039C13.0865 6.90039 12.9878 6.92006 12.8957 6.95826C12.8036 6.99647 12.7199 7.05247 12.6494 7.12305L8.25881 11.5114L5.92398 9.17662Z" fill="black" fill-opacity="0.5"/>
</svg>
