<svg width="24" height="24" viewBox="0 0 24 24" fill="none" xmlns="http://www.w3.org/2000/svg">
<g clip-path="url(#clip0_140_2263)">
<path d="M0.289062 20V18.0312C0.289062 17.1354 0.655729 16.4062 1.38906 15.8438C2.1224 15.2812 3.08906 15 4.28906 15C4.50573 15 4.71406 15.0054 4.91406 15.0162C5.11406 15.0271 5.30573 15.0529 5.48906 15.0938C5.25573 15.5312 5.08073 15.9896 4.96406 16.4688C4.8474 16.9479 4.78906 17.4479 4.78906 17.9688V20H0.289062ZM6.28906 20V17.9688C6.28906 17.3021 6.43506 16.6925 6.72706 16.14C7.01906 15.5875 7.4314 15.1033 7.96406 14.6875C8.49673 14.2717 9.1344 13.9592 9.87706 13.75C10.6197 13.5408 11.4237 13.4367 12.2891 13.4375C13.1724 13.4375 13.9851 13.5417 14.7271 13.75C15.4691 13.9583 16.1064 14.2708 16.6391 14.6875C17.1717 15.1042 17.5801 15.5887 17.8641 16.1413C18.1481 16.6938 18.2897 17.3029 18.2891 17.9688V20H6.28906ZM19.7891 20V17.9688C19.7891 17.4271 19.7351 16.9167 19.6271 16.4375C19.5191 15.9583 19.3564 15.5104 19.1391 15.0938C19.3224 15.0521 19.5101 15.0262 19.7021 15.0162C19.8941 15.0062 20.0897 15.0008 20.2891 15C21.4891 15 22.4557 15.2762 23.1891 15.8288C23.9224 16.3813 24.2891 17.1154 24.2891 18.0312V20H19.7891ZM4.28906 13.75C3.73906 13.75 3.2684 13.5054 2.87706 13.0163C2.48573 12.5271 2.28973 11.9383 2.28906 11.25C2.28906 10.5417 2.48506 9.94792 2.87706 9.46875C3.26906 8.98958 3.73973 8.75 4.28906 8.75C4.85573 8.75 5.33073 8.98958 5.71406 9.46875C6.0974 9.94792 6.28906 10.5417 6.28906 11.25C6.28906 11.9375 6.0974 12.5263 5.71406 13.0163C5.33073 13.5063 4.85573 13.7508 4.28906 13.75ZM20.2891 13.75C19.7391 13.75 19.2684 13.5054 18.8771 13.0163C18.4857 12.5271 18.2897 11.9383 18.2891 11.25C18.2891 10.5417 18.4851 9.94792 18.8771 9.46875C19.2691 8.98958 19.7397 8.75 20.2891 8.75C20.8557 8.75 21.3307 8.98958 21.7141 9.46875C22.0974 9.94792 22.2891 10.5417 22.2891 11.25C22.2891 11.9375 22.0974 12.5263 21.7141 13.0163C21.3307 13.5063 20.8557 13.7508 20.2891 13.75ZM12.2891 12.5C11.4557 12.5 10.7474 12.1354 10.1641 11.4062C9.58073 10.6771 9.28906 9.79167 9.28906 8.75C9.28906 7.6875 9.58073 6.79708 10.1641 6.07875C10.7474 5.36042 11.4557 5.00083 12.2891 5C13.1391 5 13.8517 5.35958 14.4271 6.07875C15.0024 6.79792 15.2897 7.68833 15.2891 8.75C15.2891 9.79167 15.0017 10.6771 14.4271 11.4062C13.8524 12.1354 13.1397 12.5 12.2891 12.5Z" fill="black" fill-opacity="0.3"/>
</g>
<defs>
<clipPath id="clip0_140_2263">
<rect width="24" height="24" fill="white"/>
</clipPath>
</defs>
</svg>
