<svg width="25" height="25" viewBox="0 0 25 25" fill="none" xmlns="http://www.w3.org/2000/svg">
<path d="M12.5 5.80314C8.80717 5.80314 5.80314 8.80717 5.80314 12.5C5.80314 16.1928 8.80717 19.1969 12.5 19.1969C16.1928 19.1969 19.1969 16.1928 19.1969 12.5C19.1969 8.80717 16.1928 5.80314 12.5 5.80314ZM12.5 4C17.1942 4 21 7.80583 21 12.5C21 17.1942 17.1942 21 12.5 21C7.80583 21 4 17.1942 4 12.5C4 7.80583 7.80583 4 12.5 4Z" fill="#9A9C95"/>
<path d="M13.3956 14.3741C13.3956 14.0375 13.3403 13.7321 13.2309 13.4593C13.1215 13.1864 12.9532 12.9352 12.726 12.7056C12.4988 12.476 12.2115 12.256 11.8653 12.0468C11.5696 11.8629 11.3304 11.6826 11.15 11.5071C10.9685 11.3316 10.8375 11.138 10.7558 10.9289C10.674 10.7197 10.6332 10.4793 10.6332 10.2088V10.2016C10.6332 9.87944 10.7113 9.59574 10.8664 9.34811C11.0226 9.10048 11.2402 8.90694 11.5203 8.7663C11.8016 8.62565 12.1298 8.55593 12.5084 8.55593C12.8871 8.55593 13.2237 8.62806 13.5074 8.76991C13.791 8.91295 14.0134 9.1101 14.1769 9.36374C14.3404 9.61618 14.4402 9.9143 14.475 10.2557L14.4823 10.3326H15.7913L15.7841 10.2329C15.7432 9.71235 15.5966 9.23391 15.3442 8.79755C15.0917 8.36119 14.7251 8.01259 14.2454 7.75293C13.7658 7.49208 13.1684 7.36225 12.4543 7.36225C11.8112 7.36225 11.2462 7.48367 10.7582 7.72649C10.2713 7.96931 9.89025 8.29868 9.61738 8.71341C9.34451 9.12933 9.20747 9.60296 9.20747 10.1331V10.1403C9.20747 10.5382 9.27238 10.9 9.40221 11.2234C9.53203 11.5479 9.71715 11.8376 9.95757 12.0925C10.198 12.3473 10.4805 12.5745 10.8075 12.7741C11.1296 12.9628 11.3809 13.1443 11.5612 13.3174C11.7427 13.4905 11.8701 13.6768 11.9434 13.8764C12.018 14.0759 12.054 14.3104 12.054 14.5808V15.0785H13.3944V14.3741H13.3956ZM13.2982 17.3997C13.4569 17.2411 13.5374 17.0451 13.5374 16.8131C13.5374 16.5811 13.4581 16.3804 13.2982 16.2229C13.1395 16.0666 12.9436 15.9873 12.7116 15.9873C12.4796 15.9873 12.2788 16.0654 12.1213 16.2229C11.9651 16.3804 11.8857 16.5763 11.8857 16.8131C11.8857 17.0499 11.9639 17.2399 12.1213 17.3997C12.2776 17.5584 12.4748 17.6389 12.7116 17.6389C12.9484 17.6389 13.1383 17.5596 13.2982 17.3997Z" fill="#9A9C95"/>
</svg>
