<svg width="18" height="20" viewBox="0 0 18 20" fill="none" xmlns="http://www.w3.org/2000/svg">
<path fill-rule="evenodd" clip-rule="evenodd" d="M7.29658 17.7501H3.61237C2.41776 17.7462 1.44974 16.7283 1.44237 15.4673V7.73137C1.44237 7.30942 1.62289 6.91081 1.92868 6.64151L2.57987 6.13206C2.8175 5.86665 2.83868 5.46026 2.63697 5.16373C2.4325 4.86817 2.05763 4.76901 1.74539 4.92456L1.08316 5.44859C0.409868 5.99595 0.0147368 6.83498 0 7.73137V15.4751C0.00368421 17.579 1.61921 19.2843 3.61237 19.2882H7.29658C7.69539 19.2882 8.01592 18.946 8.01592 18.5289C8.01592 18.1069 7.69539 17.7657 7.29658 17.7657V17.7501Z" fill="black" fill-opacity="0.3"/>
<path fill-rule="evenodd" clip-rule="evenodd" d="M17.3104 7.71385C17.2993 6.82816 16.9143 5.98913 16.2595 5.43108L10.7267 0.775104C9.50998 -0.258368 7.77564 -0.258368 6.55985 0.775104L4.80801 2.11969C4.47643 2.36955 4.4009 2.85274 4.63853 3.20177C4.87616 3.54691 5.33301 3.62663 5.66366 3.37677L7.4413 1.97483C8.13945 1.36719 9.14709 1.36719 9.84524 1.97483L15.378 6.6308C15.6985 6.90108 15.8855 7.30358 15.8929 7.73233V15.4761C15.8929 16.7371 14.9212 17.7589 13.7302 17.7589H12.0862C11.9176 17.7589 11.7841 17.614 11.7841 17.4361V13.9458C11.7841 12.8326 10.9312 11.9284 9.87748 11.9255H7.47353C6.96603 11.9255 6.48064 12.1375 6.12143 12.5176C5.7613 12.8977 5.55959 13.4101 5.55959 13.9458V15.2826C5.55959 15.6997 5.8838 16.0419 6.27893 16.0419C6.67866 16.0419 7.00288 15.6997 7.00288 15.2826V13.9458C6.99919 13.8126 7.04524 13.6872 7.13551 13.5919C7.22209 13.5015 7.3409 13.448 7.46616 13.448H9.87011C10.1252 13.448 10.3343 13.6687 10.3343 13.938V17.4361C10.338 18.4569 11.1218 19.2814 12.0862 19.2814H13.687C15.6838 19.2814 17.2993 17.5722 17.2993 15.4683L17.3104 7.71385Z" fill="black" fill-opacity="0.3"/>
</svg>
