<svg width="22" height="22" viewBox="0 0 22 22" fill="none" xmlns="http://www.w3.org/2000/svg">
<path d="M2.19803 14.4643L2.91277 14.2371L2.19803 14.4643ZM1.13937 8.45481L1.86184 8.65617L1.13937 8.45481ZM5.56008 3.8893L5.11297 3.28715L5.56008 3.8893ZM1.24737 8.11512L1.95346 8.36796L1.24737 8.11512ZM5.08054 20.172L4.65597 20.7902H4.65597L5.08054 20.172ZM4.7978 19.962L4.32879 20.5473L4.7978 19.962ZM19.802 14.4643L19.0872 14.2371L19.802 14.4643ZM17.2022 19.962L17.6712 20.5473L17.2022 19.962ZM16.9195 20.172L17.344 20.7902L16.9195 20.172ZM16.4399 3.8893L16.887 3.28715L16.4399 3.8893ZM20.7526 8.11512L20.0465 8.36796L20.7526 8.11512ZM20.8606 8.45481L20.1382 8.65617L20.8606 8.45481ZM11.1747 1.00327L11.1466 1.75275L11.1747 1.00327ZM10.8253 1.00327L10.8534 1.75275L10.8253 1.00327ZM9.09338 15.6629C8.67916 15.6629 8.34338 15.9987 8.34338 16.4129C8.34338 16.8271 8.67916 17.1629 9.09338 17.1629V15.6629ZM12.9066 17.1629C13.3208 17.1629 13.6566 16.8271 13.6566 16.4129C13.6566 15.9987 13.3208 15.6629 12.9066 15.6629V17.1629ZM2.19803 14.4643L2.91277 14.2371C2.4224 12.6946 2.07325 11.5932 1.89005 10.6991C1.71029 9.8217 1.70651 9.21346 1.86184 8.65617L1.13937 8.45481L0.416907 8.25346C0.174273 9.12402 0.214289 9.99332 0.420577 11.0001C0.623426 11.9902 1.00258 13.1795 1.48328 14.6915L2.19803 14.4643ZM5.56008 3.8893L5.11297 3.28715C3.85491 4.22129 2.86279 4.95669 2.12805 5.63693C1.37993 6.32956 0.846122 7.01095 0.541274 7.86228L1.24737 8.11512L1.95346 8.36796C2.14787 7.82506 2.49926 7.33742 3.14711 6.73762C3.80833 6.12544 4.72295 5.44504 6.0072 4.49145L5.56008 3.8893ZM1.13937 8.45481L1.86184 8.65617C1.88893 8.55896 1.91949 8.46283 1.95346 8.36796L1.24737 8.11512L0.541274 7.86228C0.495145 7.9911 0.453663 8.12158 0.416907 8.25346L1.13937 8.45481ZM11 21V20.25C9.41212 20.25 8.28207 20.2489 7.39641 20.151C6.52914 20.0552 5.96936 19.8725 5.50511 19.5537L5.08054 20.172L4.65597 20.7902C5.39748 21.2994 6.2262 21.5308 7.2316 21.642C8.21862 21.7511 9.44542 21.75 11 21.75V21ZM2.19803 14.4643L1.48328 14.6915C1.96395 16.2034 2.34128 17.3935 2.74669 18.3166C3.15879 19.2549 3.62756 19.9853 4.32879 20.5473L4.7978 19.962L5.26681 19.3768C4.82488 19.0226 4.4793 18.5314 4.12007 17.7134C3.75415 16.8803 3.40318 15.7796 2.91277 14.2371L2.19803 14.4643ZM5.08054 20.172L5.50511 19.5537C5.42362 19.4977 5.34413 19.4387 5.26681 19.3768L4.7978 19.962L4.32879 20.5473C4.43487 20.6323 4.544 20.7133 4.65597 20.7902L5.08054 20.172ZM19.802 14.4643L19.0872 14.2371C18.5968 15.7796 18.2458 16.8803 17.8799 17.7134C17.5207 18.5314 17.1751 19.0226 16.7332 19.3768L17.2022 19.962L17.6712 20.5473C18.3724 19.9853 18.8412 19.2549 19.2533 18.3166C19.6587 17.3935 20.0361 16.2034 20.5167 14.6915L19.802 14.4643ZM11 21V21.75C12.5546 21.75 13.7814 21.7511 14.7684 21.642C15.7738 21.5308 16.6025 21.2994 17.344 20.7902L16.9195 20.172L16.4949 19.5537C16.0306 19.8725 15.4709 20.0552 14.6036 20.151C13.7179 20.2489 12.5879 20.25 11 20.25V21ZM17.2022 19.962L16.7332 19.3768C16.6559 19.4387 16.5764 19.4977 16.4949 19.5537L16.9195 20.172L17.344 20.7902C17.456 20.7133 17.5651 20.6323 17.6712 20.5473L17.2022 19.962ZM16.4399 3.8893L15.9928 4.49145C17.277 5.44504 18.1917 6.12544 18.8529 6.73762C19.5007 7.33742 19.8521 7.82506 20.0465 8.36796L20.7526 8.11512L21.4587 7.86228C21.1539 7.01095 20.6201 6.32956 19.8719 5.63693C19.1372 4.95669 18.1451 4.22129 16.887 3.28715L16.4399 3.8893ZM19.802 14.4643L20.5167 14.6915C20.9974 13.1795 21.3766 11.9902 21.5794 11.0001C21.7857 9.99332 21.8257 9.12402 21.5831 8.25346L20.8606 8.45481L20.1382 8.65617C20.2935 9.21346 20.2897 9.8217 20.1099 10.6991C19.9268 11.5932 19.5776 12.6946 19.0872 14.2371L19.802 14.4643ZM20.7526 8.11512L20.0465 8.36796C20.0805 8.46283 20.1111 8.55896 20.1382 8.65617L20.8606 8.45481L21.5831 8.25346C21.5463 8.12158 21.5049 7.9911 21.4587 7.86228L20.7526 8.11512ZM16.4399 3.8893L16.887 3.28715C15.6291 2.35312 14.638 1.61589 13.7775 1.1117C12.902 0.59868 12.0983 0.287373 11.2028 0.253801L11.1747 1.00327L11.1466 1.75275C11.7029 1.7736 12.2607 1.96144 13.0192 2.4059C13.7928 2.85918 14.7084 3.53775 15.9928 4.49145L16.4399 3.8893ZM5.56008 3.8893L6.0072 4.49145C7.2916 3.53775 8.2072 2.85918 8.9808 2.4059C9.73933 1.96144 10.2971 1.7736 10.8534 1.75275L10.8253 1.00327L10.7972 0.253801C9.90173 0.287373 9.09803 0.59868 8.22248 1.1117C7.362 1.61589 6.37087 2.35312 5.11297 3.28715L5.56008 3.8893ZM11.1747 1.00327L11.2028 0.253801C11.0677 0.248733 10.9323 0.248733 10.7972 0.253801L10.8253 1.00327L10.8534 1.75275C10.9511 1.74908 11.0489 1.74908 11.1466 1.75275L11.1747 1.00327ZM9.09338 16.4129V17.1629H12.9066V16.4129V15.6629H9.09338V16.4129Z" fill="#2563EB"/>
</svg>
