<svg width="22" height="22" viewBox="0 0 22 22" fill="none" xmlns="http://www.w3.org/2000/svg">
<path d="M5 14H7M17 14V17C17 18.886 17 19.828 16.531 20.414C16.084 20.974 15.376 20.999 14 21M17.008 5H16.998M7 21H5C3.114 21 2.172 21 1.586 20.414C1 19.828 1 18.886 1 17V15C1 13.114 1 12.172 1.586 11.586C2.172 11 3.114 11 5 11H7C8.886 11 9.828 11 10.414 11.586C11 12.172 11 13.114 11 15V17C11 18.886 11 19.828 10.414 20.414C9.828 21 8.886 21 7 21ZM17 1C14.79 1 13 2.809 13 5.04C13 6.316 13.5 7.308 14.5 8.194C15.205 8.819 16.059 9.857 16.571 10.697C16.817 11.101 17.165 11.101 17.429 10.697C17.967 9.873 18.795 8.819 19.5 8.195C20.5 7.308 21 6.316 21 5.04C21 2.81 19.21 1 17 1Z" stroke="#2563EB" stroke-width="1.5" stroke-linecap="round" stroke-linejoin="round"/>
</svg>
