<svg width="25" height="25" viewBox="0 0 25 25" fill="none" xmlns="http://www.w3.org/2000/svg">
<path d="M12.5 4C17.1942 4 21 7.80583 21 12.5C21 17.1942 17.1942 21 12.5 21C7.80583 21 4 17.1942 4 12.5C4 7.80583 7.80583 4 12.5 4ZM6.57969 9.37456H8.97546C9.10409 8.40447 9.29642 7.44039 9.55006 6.48953C8.28306 7.11462 7.24084 8.12799 6.58089 9.37456H6.57969ZM5.80314 12.5C5.80314 13.0806 5.87767 13.6444 6.01711 14.1829H8.84924C8.76149 13.0626 8.75308 11.9374 8.83001 10.8171H6.01591C5.87647 11.3556 5.80194 11.9194 5.80194 12.5H5.80314ZM19.1969 12.5C19.1969 11.9194 19.1223 11.3556 18.9829 10.8171H16.0678C16.1447 11.9374 16.1375 13.0626 16.0486 14.1829H18.9829C19.1223 13.6444 19.1969 13.0806 19.1969 12.5ZM14.6205 10.8171H10.2785C10.1968 11.9374 10.2028 13.0626 10.2978 14.1829H14.6013C14.695 13.0626 14.7022 11.9374 14.6205 10.8171ZM11.1921 5.93176L10.9541 6.8141C10.7269 7.65797 10.555 8.51266 10.4324 9.37456H14.4654C14.3428 8.51386 14.1709 7.65797 13.9437 6.8141L13.7009 5.91253C13.3114 5.84161 12.9099 5.80194 12.5 5.80194C12.0528 5.80194 11.6153 5.84641 11.1921 5.93056V5.93176ZM15.3357 6.43424V6.43905C15.5978 7.40553 15.7925 8.38644 15.9236 9.37456H18.4203C17.7399 8.09072 16.6544 7.05452 15.3357 6.43544V6.43424ZM18.4203 15.6254H15.8899C15.7601 16.5342 15.5774 17.4382 15.3369 18.3289L15.2648 18.597C16.616 17.9815 17.7279 16.9321 18.4203 15.6254ZM13.636 19.0983L13.9437 17.9539C14.1505 17.1858 14.3116 16.408 14.4306 15.6254H10.4673C10.5875 16.408 10.7473 17.1858 10.9541 17.9539L11.257 19.0791C11.6597 19.1548 12.0745 19.1969 12.4988 19.1969C12.8859 19.1969 13.2645 19.162 13.6348 19.0983H13.636ZM9.61979 18.5441L9.56208 18.3289C9.32167 17.4382 9.14015 16.5342 9.00912 15.6254H6.57969C7.25286 16.8949 8.32032 17.9238 9.61979 18.5453V18.5441Z" fill="#45BBED"/>
</svg>
