<svg width="21" height="20" viewBox="0 0 21 20" fill="none" xmlns="http://www.w3.org/2000/svg">
<path d="M2.88132 19.0476C2.35751 19.0476 1.90926 18.8613 1.53656 18.4886C1.16386 18.1159 0.977197 17.6673 0.976562 17.1429V1.90476C0.976562 1.38095 1.16323 0.932698 1.53656 0.56C1.9099 0.187302 2.35815 0.000634921 2.88132 0H14.3099C14.8337 0 15.2823 0.186667 15.6556 0.56C16.0289 0.933333 16.2153 1.38159 16.2147 1.90476V7.61905C16.2147 7.88889 16.1232 8.11524 15.9404 8.29809C15.7575 8.48095 15.5315 8.57206 15.2623 8.57143C14.9931 8.57079 14.767 8.47936 14.5842 8.29714C14.4013 8.11492 14.3099 7.88889 14.3099 7.61905V1.90476H9.54799V7.73809C9.54799 7.9127 9.46863 8.04762 9.30989 8.14286C9.15117 8.2381 8.99243 8.2381 8.8337 8.14286L7.16704 7.14286L5.50037 8.14286C5.34164 8.2381 5.18291 8.2381 5.02418 8.14286C4.86545 8.04762 4.78609 7.9127 4.78609 7.73809V1.90476H2.88132V17.1429H7.64323C7.91307 17.1429 8.13942 17.2343 8.32228 17.4171C8.50513 17.6 8.59624 17.826 8.59561 18.0952C8.59497 18.3644 8.50355 18.5908 8.32132 18.7743C8.1391 18.9578 7.91307 19.0489 7.64323 19.0476H2.88132ZM15.2623 20C13.9448 20 12.822 19.5356 11.8937 18.6067C10.9655 17.6778 10.501 16.5549 10.5004 15.2381C10.4997 13.9213 10.9642 12.7984 11.8937 11.8695C12.8232 10.9406 13.9461 10.4762 15.2623 10.4762C16.5785 10.4762 17.7016 10.9406 18.6318 11.8695C19.562 12.7984 20.0261 13.9213 20.0242 15.2381C20.0223 16.5549 19.5578 17.6781 18.6308 18.6076C17.7039 19.5371 16.581 20.0013 15.2623 20ZM14.8099 17.1667L17.2385 15.6429C17.3972 15.5476 17.4766 15.4127 17.4766 15.2381C17.4766 15.0635 17.3972 14.9286 17.2385 14.8333L14.8099 13.3095C14.6512 13.2143 14.4883 13.2102 14.3213 13.2971C14.1543 13.3841 14.0712 13.5232 14.0718 13.7143V16.7619C14.0718 16.9524 14.1553 17.0914 14.3223 17.179C14.4893 17.2667 14.6518 17.2625 14.8099 17.1667Z" fill="black" fill-opacity="0.4"/>
</svg>
