<svg width="56" height="52" viewBox="0 0 56 52" fill="none" xmlns="http://www.w3.org/2000/svg">
<path d="M54.9793 28.9168V15.7918C54.9793 11.9241 53.4429 8.21476 50.708 5.47986C47.9731 2.74495 44.2637 1.2085 40.396 1.2085H15.6043C11.7366 1.2085 8.02726 2.74495 5.29236 5.47986C2.55745 8.21476 1.021 11.9241 1.021 15.7918V36.2085C1.021 38.1236 1.39821 40.02 2.13109 41.7893C2.86397 43.5586 3.93817 45.1663 5.29236 46.5205C8.02726 49.2554 11.7366 50.7918 15.6043 50.7918H33.8627" stroke="#2563EB" stroke-width="1.5" stroke-linecap="round" stroke-linejoin="round"/>
<path d="M1.7793 40.5833L9.77096 31.2499C10.8205 30.2075 12.198 29.5598 13.6702 29.4163C15.1424 29.2728 16.6191 29.6423 17.8501 30.4624C19.0812 31.2825 20.5578 31.6521 22.0301 31.5086C23.5023 31.3651 24.8798 30.7173 25.9293 29.6749L32.7251 22.8791C34.6778 20.9198 37.2632 19.718 40.0198 19.4883C42.7765 19.2586 45.5251 20.0158 47.7751 21.6249L54.9793 27.1958M16.3626 20.6624C16.9984 20.6586 17.6273 20.5296 18.2132 20.2827C18.7992 20.0359 19.3308 19.676 19.7777 19.2237C20.2245 18.7714 20.578 18.2355 20.8177 17.6466C21.0575 17.0578 21.179 16.4274 21.1751 15.7916C21.1713 15.1558 21.0423 14.5269 20.7954 13.941C20.5486 13.355 20.1887 12.8234 19.7364 12.3766C19.2841 11.9297 18.7482 11.5763 18.1593 11.3365C17.5705 11.0967 16.9401 10.9753 16.3043 10.9791C15.0202 10.9868 13.7918 11.5043 12.8893 12.4178C11.9867 13.3313 11.4841 14.5658 11.4918 15.8499C11.4995 17.134 12.0171 18.3624 12.9305 19.265C13.844 20.1675 15.0785 20.6702 16.3626 20.6624Z" stroke="#2563EB" stroke-width="1.5" stroke-linecap="round" stroke-linejoin="round"/>
<path d="M47.562 34.75V49.3333" stroke="#2563EB" stroke-width="1.5" stroke-miterlimit="10" stroke-linecap="round"/>
<path d="M54.2503 40.8895L48.5133 35.1524C48.3886 35.0272 48.2404 34.9278 48.0773 34.86C47.9141 34.7922 47.7391 34.7573 47.5624 34.7573C47.3857 34.7573 47.2108 34.7922 47.0476 34.86C46.8844 34.9278 46.7363 35.0272 46.6116 35.1524L40.8745 40.8895" stroke="#2563EB" stroke-width="1.5" stroke-linecap="round" stroke-linejoin="round"/>
</svg>
