<svg width="24" height="24" viewBox="0 0 24 24" fill="none" xmlns="http://www.w3.org/2000/svg">
<rect width="24" height="24" rx="12" fill="#008000"/>
<path fill-rule="evenodd" clip-rule="evenodd" d="M12 6C9.5147 6 7.5 8.01472 7.5 10.5C7.5 12.1517 8.12862 13.6243 8.87882 14.7962C9.62985 15.9694 10.5211 16.8701 11.0931 17.3883C11.613 17.8594 12.3871 17.8594 12.9069 17.3883C13.4789 16.8701 14.3701 15.9694 15.1212 14.7962C15.8713 13.6243 16.5 12.1517 16.5 10.5C16.5 8.01472 14.4853 6 12 6ZM13.5 10.5C13.5 11.3285 12.8285 12 12 12C11.1716 12 10.5 11.3285 10.5 10.5C10.5 9.67155 11.1716 9 12 9C12.8285 9 13.5 9.67155 13.5 10.5Z" fill="white"/>
</svg>
