<svg width="25" height="25" viewBox="0 0 25 25" fill="none" xmlns="http://www.w3.org/2000/svg">
<path fill-rule="evenodd" clip-rule="evenodd" d="M4 4.92857C4 4.41708 4.2032 3.92654 4.56489 3.56487C4.92659 3.20319 5.41715 3 5.92866 3H14.9291C15.4406 3 15.9312 3.20319 16.2929 3.56487C16.6546 3.92654 16.8577 4.41708 16.8577 4.92857V7.42157C16.336 7.83942 15.9975 8.44399 15.914 9.10714H11.3932C11.0133 9.10714 10.6371 9.18197 10.2861 9.32735C9.93511 9.47273 9.61619 9.68581 9.34755 9.95444C9.07891 10.2231 8.86582 10.542 8.72043 10.893C8.57504 11.2439 8.50021 11.6201 8.50021 12C8.50021 12.3799 8.57504 12.7561 8.72043 13.107C8.86582 13.458 9.07891 13.7769 9.34755 14.0456C9.61619 14.3142 9.93511 14.5273 10.2861 14.6727C10.6371 14.818 11.0133 14.8929 11.3932 14.8929H15.914C15.9975 15.556 16.336 16.1606 16.8577 16.5784V19.0714C16.8577 19.5829 16.6546 20.0735 16.2929 20.4351C15.9312 20.7968 15.4406 21 14.9291 21H5.92866C5.41715 21 4.92659 20.7968 4.56489 20.4351C4.2032 20.0735 4 19.5829 4 19.0714V4.92857ZM18.096 8.53757C17.9197 8.61056 17.7691 8.73417 17.6631 8.89277C17.5572 9.05137 17.5006 9.23783 17.5006 9.42857V10.7143H11.3932C11.0522 10.7143 10.7252 10.8497 10.484 11.0909C10.2429 11.332 10.1074 11.659 10.1074 12C10.1074 12.341 10.2429 12.668 10.484 12.9091C10.7252 13.1503 11.0522 13.2857 11.3932 13.2857H17.5006V14.5714C17.5008 14.762 17.5575 14.9483 17.6634 15.1067C17.7694 15.2651 17.9199 15.3886 18.096 15.4615C18.2722 15.5344 18.4659 15.5535 18.6529 15.5164C18.8398 15.4792 19.0116 15.3875 19.1464 15.2529L21.718 12.6814C21.8986 12.5006 22 12.2555 22 12C22 11.7445 21.8986 11.4994 21.718 11.3186L19.1464 8.74714C19.0117 8.61228 18.8399 8.5204 18.653 8.48309C18.466 8.44579 18.2722 8.46475 18.096 8.53757Z" fill="#D90509"/>
</svg>
