<svg width="20" height="20" viewBox="0 0 20 20" fill="none" xmlns="http://www.w3.org/2000/svg">
<path d="M18.0695 19.25H1.93001C1.6556 19.2498 1.39247 19.1407 1.19848 18.9466C1.00448 18.7526 0.895508 18.4894 0.895508 18.215V6.88997C0.89564 6.61556 1.00474 6.35243 1.19883 6.15844C1.39291 5.96444 1.6561 5.85547 1.93051 5.85547H18.069C18.3434 5.8556 18.6065 5.9647 18.8005 6.15879C18.9945 6.35288 19.1035 6.61606 19.1035 6.89047V18.2155C19.1034 18.4899 18.9943 18.753 18.8002 18.947C18.6061 19.141 18.3429 19.25 18.0685 19.25" stroke="#5E5F60" stroke-opacity="0.5" stroke-width="1.4" stroke-linecap="round" stroke-linejoin="round"/>
<path d="M4.25096 12.7054V8.76244H8.39346M11.4995 16.3269H15.6615V12.3499M2.23096 5.85644V4.03094C2.23162 3.76393 2.33798 3.50806 2.52678 3.31926C2.71558 3.13046 2.97145 3.0241 3.23846 3.02344H16.7615C17.0285 3.0241 17.2843 3.13046 17.4731 3.31926C17.6619 3.50806 17.7683 3.76393 17.769 4.03094V5.85594" stroke="#5E5F60" stroke-opacity="0.5" stroke-width="1.4" stroke-linecap="round" stroke-linejoin="round"/>
<path d="M3.75928 3.0235V1.7575C3.75994 1.4905 3.8663 1.23462 4.0551 1.04582C4.2439 0.857019 4.49977 0.75066 4.76678 0.75H15.2328C15.4998 0.75066 15.7557 0.857019 15.9445 1.04582C16.1333 1.23462 16.2396 1.4905 16.2403 1.7575V3.0235" stroke="#5E5F60" stroke-opacity="0.5" stroke-width="1.4" stroke-linecap="round" stroke-linejoin="round"/>
</svg>
