<svg width="25" height="24" viewBox="0 0 25 24" fill="none" xmlns="http://www.w3.org/2000/svg">
<path d="M20.5695 21.25H4.43001C4.1556 21.2498 3.89247 21.1407 3.69848 20.9466C3.50448 20.7526 3.39551 20.4894 3.39551 20.215V8.88997C3.39564 8.61556 3.50474 8.35243 3.69883 8.15844C3.89291 7.96444 4.1561 7.85547 4.43051 7.85547H20.569C20.8434 7.8556 21.1065 7.9647 21.3005 8.15879C21.4945 8.35288 21.6035 8.61606 21.6035 8.89047V20.2155C21.6034 20.4899 21.4943 20.753 21.3002 20.947C21.1061 21.141 20.8429 21.25 20.5685 21.25" stroke="#5E5F60" stroke-opacity="0.5" stroke-width="1.4" stroke-linecap="round" stroke-linejoin="round"/>
<path d="M6.75096 14.7054V10.7624H10.8935M13.9995 18.3269H18.1615V14.3499M4.73096 7.85644V6.03094C4.73162 5.76393 4.83798 5.50806 5.02678 5.31926C5.21558 5.13046 5.47145 5.0241 5.73846 5.02344H19.2615C19.5285 5.0241 19.7843 5.13046 19.9731 5.31926C20.1619 5.50806 20.2683 5.76393 20.269 6.03094V7.85594" stroke="#5E5F60" stroke-opacity="0.5" stroke-width="1.4" stroke-linecap="round" stroke-linejoin="round"/>
<path d="M6.25928 5.0235V3.7575C6.25994 3.4905 6.3663 3.23462 6.5551 3.04582C6.7439 2.85702 6.99977 2.75066 7.26678 2.75H17.7328C17.9998 2.75066 18.2557 2.85702 18.4445 3.04582C18.6333 3.23462 18.7396 3.4905 18.7403 3.7575V5.0235" stroke="#5E5F60" stroke-opacity="0.5" stroke-width="1.4" stroke-linecap="round" stroke-linejoin="round"/>
</svg>
