<svg width="25" height="25" viewBox="0 0 25 25" fill="none" xmlns="http://www.w3.org/2000/svg">
<path d="M12.84 21C11.8121 21 10.9804 20.1671 10.9804 19.1404H14.7007C14.7007 20.1683 13.8678 21 12.8412 21H12.84Z" fill="#4B45ED"/>
<path d="M6.02762 15.5327L6.90534 14.3729V11.4734C6.90534 8.50847 9.08936 6.04479 11.9332 5.60654V4.90799C11.9332 4.40678 12.34 4 12.8412 4C13.3424 4 13.7492 4.40678 13.7492 4.90799V5.60654C16.5918 6.04479 18.7758 8.50847 18.7758 11.4734V14.3729L19.6535 15.5327C20.0458 16.0508 20.1099 16.7349 19.8206 17.3172C19.5313 17.8995 18.9477 18.2615 18.2976 18.2615H7.38476C6.73464 18.2615 6.15111 17.8995 5.86176 17.3172C5.57241 16.7349 5.63537 16.0508 6.02883 15.5327H6.02762ZM18.0676 16.4443L16.961 14.9818V11.4722C16.961 9.20097 15.1124 7.3523 12.8412 7.3523C10.57 7.3523 8.72132 9.20097 8.72132 11.4722V14.9818L7.61479 16.4443H18.0676Z" fill="#4B45ED"/>
</svg>
