<svg width="24" height="24" viewBox="0 0 24 24" fill="none" xmlns="http://www.w3.org/2000/svg">
<g clip-path="url(#clip0_77_924)">
<path d="M4.70789 8.20975C4.70807 7.31151 4.93313 6.42858 5.36123 5.64662C5.78932 4.86466 6.40592 4.21025 7.15118 3.74687C7.89643 3.2835 8.74504 3.02691 9.61466 3.002C10.4843 2.9771 11.3454 3.18472 12.1143 3.60472C12.8833 4.02472 13.5341 4.64283 14.0035 5.39908C14.473 6.15533 14.7451 7.02403 14.7935 7.92088C14.8419 8.81773 14.665 9.71227 14.2798 10.5177C13.8947 11.3231 13.3145 12.0121 12.5954 12.5177C14.1439 13.1041 15.4869 14.1555 16.4517 15.5367C17.4165 16.9178 17.9589 18.5655 18.0092 20.2676C18.007 20.4512 17.9363 20.6267 17.8118 20.7577C17.6872 20.8886 17.5185 20.9648 17.3408 20.9703C17.1631 20.9758 16.9903 20.9102 16.8583 20.7872C16.7264 20.6642 16.6456 20.4933 16.6328 20.3103C16.5782 18.4642 15.8295 16.7126 14.5455 15.4267C13.2614 14.1408 11.5429 13.4216 9.75414 13.4216C7.96536 13.4216 6.24686 14.1408 4.96282 15.4267C3.67879 16.7126 2.93012 18.4642 2.87548 20.3103C2.86629 20.4958 2.78709 20.6703 2.65485 20.7962C2.52261 20.9222 2.34785 20.9897 2.168 20.9843C1.98815 20.9788 1.81751 20.9008 1.69266 20.7671C1.5678 20.6333 1.49865 20.4544 1.50002 20.2686C1.55008 18.5663 2.09242 16.9184 3.05724 15.5371C4.02206 14.1557 5.3652 13.1042 6.91376 12.5177C6.2339 12.0396 5.67753 11.3972 5.29307 10.6464C4.90861 9.89554 4.70772 9.05906 4.70789 8.20975ZM9.7546 4.42005C8.78117 4.42005 7.8476 4.81932 7.15928 5.53003C6.47096 6.24074 6.08427 7.20466 6.08427 8.20975C6.08427 9.21485 6.47096 10.1788 7.15928 10.8895C7.8476 11.6002 8.78117 11.9995 9.7546 11.9995C10.728 11.9995 11.6616 11.6002 12.3499 10.8895C13.0382 10.1788 13.4249 9.21485 13.4249 8.20975C13.4249 7.20466 13.0382 6.24074 12.3499 5.53003C11.6616 4.81932 10.728 4.42005 9.7546 4.42005ZM17.3614 8.20975C17.2262 8.20975 17.0934 8.21923 16.9631 8.23818C16.8722 8.255 16.7788 8.25272 16.6887 8.2315C16.5986 8.21027 16.5136 8.17052 16.4387 8.11462C16.3638 8.05872 16.3006 7.98782 16.2528 7.90614C16.205 7.82447 16.1736 7.73369 16.1606 7.63922C16.1475 7.54476 16.153 7.44854 16.1767 7.35632C16.2004 7.26409 16.2419 7.17775 16.2987 7.10243C16.3554 7.02711 16.4263 6.96437 16.507 6.91794C16.5877 6.87151 16.6767 6.84235 16.7686 6.8322C17.6812 6.69596 18.6118 6.87691 19.4139 7.34658C20.216 7.81624 20.844 8.54795 21.1993 9.42656C21.5545 10.3052 21.6166 11.2808 21.376 12.1999C21.1354 13.119 20.6056 13.9294 19.87 14.5035C20.9513 15.0034 21.8694 15.8157 22.5135 16.8424C23.1576 17.869 23.5002 19.0662 23.5 20.2894C23.5 20.4779 23.4275 20.6586 23.2984 20.7919C23.1694 20.9251 22.9943 21 22.8118 21C22.6293 21 22.4543 20.9251 22.3252 20.7919C22.1961 20.6586 22.1236 20.4779 22.1236 20.2894C22.124 19.2321 21.7942 18.2029 21.1833 17.3543C20.5724 16.5058 19.7129 15.8832 18.7322 15.5788L18.2422 15.4272V13.8394L18.6185 13.6413C19.1761 13.3497 19.6223 12.8725 19.885 12.2868C20.1477 11.701 20.2115 11.041 20.0662 10.4132C19.921 9.78545 19.575 9.22654 19.0842 8.82674C18.5934 8.42694 17.9865 8.20958 17.3614 8.20975Z" fill="#2D4796"/>
</g>
<defs>
<clipPath id="clip0_77_924">
<rect width="24" height="24" fill="white"/>
</clipPath>
</defs>
</svg>
