<svg width="25" height="25" viewBox="0 0 25 25" fill="none" xmlns="http://www.w3.org/2000/svg">
<path fill-rule="evenodd" clip-rule="evenodd" d="M6.25 11.25C6.91304 11.25 7.54893 10.9866 8.01777 10.5178C8.48661 10.0489 8.75 9.41304 8.75 8.75C8.75 8.08696 8.48661 7.45107 8.01777 6.98223C7.54893 6.51339 6.91304 6.25 6.25 6.25C5.58696 6.25 4.95107 6.51339 4.48223 6.98223C4.01339 7.45107 3.75 8.08696 3.75 8.75C3.75 9.41304 4.01339 10.0489 4.48223 10.5178C4.95107 10.9866 5.58696 11.25 6.25 11.25ZM6.25 12.5C6.74246 12.5 7.23009 12.403 7.68506 12.2145C8.14003 12.0261 8.55343 11.7499 8.90165 11.4017C9.24987 11.0534 9.52609 10.64 9.71455 10.1851C9.903 9.73009 10 9.24246 10 8.75C10 8.25754 9.903 7.76991 9.71455 7.31494C9.52609 6.85997 9.24987 6.44657 8.90165 6.09835C8.55343 5.75013 8.14003 5.47391 7.68506 5.28545C7.23009 5.097 6.74246 5 6.25 5C5.25544 5 4.30161 5.39509 3.59835 6.09835C2.89509 6.80161 2.5 7.75544 2.5 8.75C2.5 9.74456 2.89509 10.6984 3.59835 11.4017C4.30161 12.1049 5.25544 12.5 6.25 12.5Z" fill="#CEFF3D"/>
<path fill-rule="evenodd" clip-rule="evenodd" d="M4.8175 11.1199C4.8757 11.178 4.92188 11.2469 4.95339 11.3229C4.9849 11.3988 5.00112 11.4802 5.00112 11.5624C5.00112 11.6446 4.9849 11.726 4.95339 11.8019C4.92188 11.8779 4.8757 11.9468 4.8175 12.0049L4.395 12.4261C3.58192 13.2395 3.12511 14.3424 3.125 15.4924V17.8124C3.125 17.9782 3.05915 18.1371 2.94194 18.2543C2.82473 18.3715 2.66576 18.4374 2.5 18.4374C2.33424 18.4374 2.17527 18.3715 2.05806 18.2543C1.94085 18.1371 1.875 17.9782 1.875 17.8124V15.4924C1.87518 14.0109 2.46373 12.5901 3.51125 11.5424L3.9325 11.1199C3.99056 11.0617 4.05953 11.0155 4.13546 10.984C4.21139 10.9525 4.29279 10.9363 4.375 10.9363C4.45721 10.9363 4.53861 10.9525 4.61454 10.984C4.69047 11.0155 4.75944 11.0617 4.8175 11.1199ZM19.5575 10.7449C19.4993 10.803 19.4531 10.8719 19.4216 10.9479C19.3901 11.0238 19.3739 11.1052 19.3739 11.1874C19.3739 11.2696 19.3901 11.351 19.4216 11.4269C19.4531 11.5029 19.4993 11.5718 19.5575 11.6299L19.98 12.0511C20.7931 12.8645 21.2499 13.9674 21.25 15.1174V17.8124C21.25 17.9782 21.3158 18.1371 21.4331 18.2543C21.5503 18.3715 21.7092 18.4374 21.875 18.4374C22.0408 18.4374 22.1997 18.3715 22.3169 18.2543C22.4342 18.1371 22.5 17.9782 22.5 17.8124V15.1174C22.4998 13.6359 21.9113 12.2151 20.8638 11.1674L20.4425 10.7449C20.3844 10.6867 20.3155 10.6405 20.2395 10.609C20.1636 10.5775 20.0822 10.5613 20 10.5613C19.9178 10.5613 19.8364 10.5775 19.7605 10.609C19.6845 10.6405 19.6156 10.6867 19.5575 10.7449Z" fill="#CEFF3D"/>
<path fill-rule="evenodd" clip-rule="evenodd" d="M17.5 11.25C16.837 11.25 16.2011 10.9866 15.7322 10.5178C15.2634 10.0489 15 9.41304 15 8.75C15 8.08696 15.2634 7.45107 15.7322 6.98223C16.2011 6.51339 16.837 6.25 17.5 6.25C18.163 6.25 18.7989 6.51339 19.2678 6.98223C19.7366 7.45107 20 8.08696 20 8.75C20 9.41304 19.7366 10.0489 19.2678 10.5178C18.7989 10.9866 18.163 11.25 17.5 11.25ZM17.5 12.5C17.0075 12.5 16.5199 12.403 16.0649 12.2145C15.61 12.0261 15.1966 11.7499 14.8483 11.4017C14.5001 11.0534 14.2239 10.64 14.0355 10.1851C13.847 9.73009 13.75 9.24246 13.75 8.75C13.75 8.25754 13.847 7.76991 14.0355 7.31494C14.2239 6.85997 14.5001 6.44657 14.8483 6.09835C15.1966 5.75013 15.61 5.47391 16.0649 5.28545C16.5199 5.097 17.0075 5 17.5 5C18.4946 5 19.4484 5.39509 20.1517 6.09835C20.8549 6.80161 21.25 7.75544 21.25 8.75C21.25 9.74456 20.8549 10.6984 20.1517 11.4017C19.4484 12.1049 18.4946 12.5 17.5 12.5ZM11.875 16.5625C11.0462 16.5625 10.2513 16.8917 9.66529 17.4778C9.07924 18.0638 8.75 18.8587 8.75 19.6875V21.3125C8.75 21.4783 8.68415 21.6372 8.56694 21.7544C8.44973 21.8717 8.29076 21.9375 8.125 21.9375C7.95924 21.9375 7.80027 21.8717 7.68306 21.7544C7.56585 21.6372 7.5 21.4783 7.5 21.3125V19.6875C7.5 18.5272 7.96094 17.4144 8.78141 16.5939C9.60188 15.7734 10.7147 15.3125 11.875 15.3125C13.0353 15.3125 14.1481 15.7734 14.9686 16.5939C15.7891 17.4144 16.25 18.5272 16.25 19.6875V21.3125C16.25 21.4783 16.1842 21.6372 16.0669 21.7544C15.9497 21.8717 15.7908 21.9375 15.625 21.9375C15.4592 21.9375 15.3003 21.8717 15.1831 21.7544C15.0658 21.6372 15 21.4783 15 21.3125V19.6875C15 19.2771 14.9192 18.8708 14.7621 18.4916C14.6051 18.1125 14.3749 17.768 14.0847 17.4778C13.7945 17.1876 13.45 16.9574 13.0709 16.8004C12.6917 16.6433 12.2854 16.5625 11.875 16.5625Z" fill="#CEFF3D"/>
<path fill-rule="evenodd" clip-rule="evenodd" d="M11.875 14.6875C12.538 14.6875 13.1739 14.4241 13.6428 13.9553C14.1116 13.4864 14.375 12.8505 14.375 12.1875C14.375 11.5245 14.1116 10.8886 13.6428 10.4197C13.1739 9.95089 12.538 9.6875 11.875 9.6875C11.212 9.6875 10.5761 9.95089 10.1072 10.4197C9.63839 10.8886 9.375 11.5245 9.375 12.1875C9.375 12.8505 9.63839 13.4864 10.1072 13.9553C10.5761 14.4241 11.212 14.6875 11.875 14.6875ZM11.875 15.9375C12.8696 15.9375 13.8234 15.5424 14.5267 14.8392C15.2299 14.1359 15.625 13.1821 15.625 12.1875C15.625 11.1929 15.2299 10.2391 14.5267 9.53585C13.8234 8.83259 12.8696 8.4375 11.875 8.4375C10.8804 8.4375 9.92661 8.83259 9.22335 9.53585C8.52009 10.2391 8.125 11.1929 8.125 12.1875C8.125 13.1821 8.52009 14.1359 9.22335 14.8392C9.92661 15.5424 10.8804 15.9375 11.875 15.9375Z" fill="#CEFF3D"/>
</svg>
