<svg width="21" height="20" viewBox="0 0 21 20" fill="none" xmlns="http://www.w3.org/2000/svg">
<path fill-rule="evenodd" clip-rule="evenodd" d="M0.90625 10C0.90625 4.47715 5.3834 0 10.9062 0C16.4291 0 20.9062 4.47715 20.9062 10C20.9062 12.8358 19.725 15.3968 17.8295 17.2159C16.0334 18.9396 13.5929 20 10.9062 20C8.21957 20 5.77911 18.9396 3.983 17.2159C2.08754 15.3968 0.90625 12.8358 0.90625 10ZM16.565 16.4824C16.164 15.283 15.0308 14.4186 13.6969 14.4186H8.11555C6.78172 14.4186 5.64849 15.283 5.24752 16.4824C6.76069 17.8045 8.73939 18.6047 10.9062 18.6047C13.0731 18.6047 15.0518 17.8045 16.565 16.4824ZM10.9062 2.7907C8.46592 2.7907 6.48765 4.76897 6.48765 7.2093C6.48765 9.64963 8.46592 11.6279 10.9062 11.6279C13.3466 11.6279 15.3249 9.64963 15.3249 7.2093C15.3249 4.76897 13.3466 2.7907 10.9062 2.7907Z" fill="black" fill-opacity="0.5"/>
</svg>
