<svg width="24" height="24" viewBox="0 0 24 24" fill="none" xmlns="http://www.w3.org/2000/svg">
<path d="M10.0113 22L9.56684 13.8571L6.74462 12.206L6.43351 13.3821L8.23351 16.5714L6.70017 17.4762L4.50017 13.631L5.56684 9.74048L10.678 6.75476L8.23351 4.26667L9.47795 3L13.5668 7.13929L10.3668 9.01667L11.4335 9.96667L18.7224 3.90476L19.7891 5.17143L12.2335 12.9524L11.7891 22H10.0113ZM5.56684 8.42857C5.07795 8.42857 4.65958 8.25154 4.31173 7.89748C3.96388 7.54341 3.78966 7.11727 3.78906 6.61905C3.78847 6.12083 3.96269 5.69498 4.31173 5.34152C4.66077 4.98806 5.07914 4.81073 5.56684 4.80952C6.05455 4.80832 6.47321 4.98565 6.82284 5.34152C7.17247 5.6974 7.3464 6.12324 7.34462 6.61905C7.34284 7.11486 7.16892 7.541 6.82284 7.89748C6.47677 8.25395 6.0581 8.43098 5.56684 8.42857Z" fill="#2D4796"/>
</svg>
