<svg width="25" height="24" viewBox="0 0 25 24" fill="none" xmlns="http://www.w3.org/2000/svg">
<path fill-rule="evenodd" clip-rule="evenodd" d="M2.5 12C2.5 6.47715 6.97715 2 12.5 2C18.0228 2 22.5 6.47715 22.5 12C22.5 14.8358 21.3187 17.3968 19.4233 19.2159C17.6271 20.9396 15.1867 22 12.5 22C9.81332 22 7.37286 20.9396 5.57675 19.2159C3.68129 17.3968 2.5 14.8358 2.5 12ZM18.1587 18.4824C17.7578 17.283 16.6245 16.4186 15.2907 16.4186H9.7093C8.37547 16.4186 7.24224 17.283 6.84127 18.4824C8.35444 19.8045 10.3331 20.6047 12.5 20.6047C14.6669 20.6047 16.6456 19.8045 18.1587 18.4824ZM12.5 4.7907C10.0597 4.7907 8.0814 6.76897 8.0814 9.2093C8.0814 11.6496 10.0597 13.6279 12.5 13.6279C14.9403 13.6279 16.9186 11.6496 16.9186 9.2093C16.9186 6.76897 14.9403 4.7907 12.5 4.7907Z" fill="#5E5F60" fill-opacity="0.5"/>
</svg>
