<svg width="21" height="20" viewBox="0 0 21 20" fill="none" xmlns="http://www.w3.org/2000/svg">
<path fill-rule="evenodd" clip-rule="evenodd" d="M0.5 10C0.5 4.47715 4.97715 0 10.5 0C16.0228 0 20.5 4.47715 20.5 10C20.5 12.8358 19.3187 15.3968 17.4233 17.2159C15.6271 18.9396 13.1867 20 10.5 20C7.81332 20 5.37286 18.9396 3.57675 17.2159C1.68129 15.3968 0.5 12.8358 0.5 10ZM16.1587 16.4824C15.7578 15.283 14.6245 14.4186 13.2907 14.4186H7.7093C6.37547 14.4186 5.24224 15.283 4.84127 16.4824C6.35444 17.8045 8.33314 18.6047 10.5 18.6047C12.6669 18.6047 14.6456 17.8045 16.1587 16.4824ZM10.5 2.7907C8.05967 2.7907 6.0814 4.76897 6.0814 7.2093C6.0814 9.64963 8.05967 11.6279 10.5 11.6279C12.9403 11.6279 14.9186 9.64963 14.9186 7.2093C14.9186 4.76897 12.9403 2.7907 10.5 2.7907Z" fill="#2563EB"/>
</svg>
