<svg width="24" height="24" viewBox="0 0 24 24" fill="none" xmlns="http://www.w3.org/2000/svg">
<path d="M4.68906 11.5625C4.16656 11.5625 3.71943 11.3791 3.34766 11.0122C2.9759 10.6453 2.7897 10.2038 2.78906 9.6875V6.875C2.78906 6.35938 2.97526 5.91812 3.34766 5.55125C3.72006 5.18437 4.1672 5.00062 4.68906 5H13.2391V11.5625H4.68906ZM4.68906 9.6875H11.3391V6.875H4.68906V9.6875ZM4.68906 20C4.16656 20 3.71943 19.8166 3.34766 19.4497C2.9759 19.0828 2.7897 18.6412 2.78906 18.125V15.3125C2.78906 14.7969 2.97526 14.3556 3.34766 13.9888C3.72006 13.6219 4.1672 13.4381 4.68906 13.4375H15.1391V20H4.68906ZM4.68906 18.125H13.2391V15.3125H4.68906V18.125ZM17.0391 20V11.5625H15.1391V5H21.7891L19.8891 9.6875H21.7891L17.0391 20ZM5.40156 17.4219H6.82656V16.0156H5.40156V17.4219ZM5.40156 8.98438H6.82656V7.57812H5.40156V8.98438Z" fill="black" fill-opacity="0.3"/>
</svg>
