<svg width="21" height="20" viewBox="0 0 21 20" fill="none" xmlns="http://www.w3.org/2000/svg">
<path fill-rule="evenodd" clip-rule="evenodd" d="M12.8903 0.542C12.9773 0.711 12.9992 0.928 13.0422 1.362C13.1242 2.182 13.1652 2.592 13.3372 2.818C13.4444 2.95832 13.5868 3.06777 13.75 3.13522C13.9132 3.20266 14.0913 3.2257 14.2662 3.202C14.5462 3.165 14.8662 2.904 15.5042 2.382C15.8412 2.105 16.0103 1.967 16.1912 1.909C16.4218 1.83534 16.6712 1.84777 16.8932 1.944C17.0682 2.02 17.2233 2.174 17.5303 2.482L18.4242 3.376C18.7323 3.684 18.8862 3.838 18.9622 4.013C19.0585 4.23506 19.0709 4.48447 18.9972 4.715C18.9392 4.896 18.8012 5.065 18.5252 5.402C18.0022 6.041 17.7413 6.36 17.7033 6.641C17.6798 6.8159 17.7031 6.99387 17.7707 7.15686C17.8384 7.31985 17.9479 7.46204 18.0882 7.569C18.3132 7.741 18.7243 7.782 19.5452 7.864C19.9783 7.907 20.1952 7.929 20.3652 8.016C20.5797 8.1272 20.7467 8.31227 20.8353 8.537C20.9062 8.714 20.9062 8.932 20.9062 9.368V10.632C20.9062 11.068 20.9062 11.286 20.8363 11.462C20.7474 11.6874 20.5796 11.8729 20.3643 11.984C20.1952 12.071 19.9783 12.093 19.5443 12.136C18.7243 12.218 18.3142 12.259 18.0882 12.431C17.9479 12.5382 17.8385 12.6806 17.771 12.8437C17.7036 13.0069 17.6805 13.185 17.7043 13.36C17.7423 13.64 18.0033 13.96 18.5252 14.598C18.8012 14.935 18.9392 15.103 18.9972 15.285C19.0709 15.5155 19.0585 15.7649 18.9622 15.987C18.8862 16.162 18.7323 16.316 18.4242 16.624L17.5303 17.517C17.2222 17.826 17.0682 17.98 16.8932 18.055C16.6712 18.1512 16.4218 18.1637 16.1912 18.09C16.0103 18.032 15.8412 17.894 15.5042 17.618C14.8652 17.096 14.5462 16.835 14.2662 16.798C14.0913 16.7743 13.9132 16.7973 13.75 16.8648C13.5868 16.9322 13.4444 17.0417 13.3372 17.182C13.1652 17.407 13.1242 17.817 13.0422 18.638C12.9992 19.072 12.9773 19.289 12.8903 19.458C12.7794 19.6732 12.5943 19.8409 12.3693 19.93C12.1923 20 11.9742 20 11.5382 20H10.2743C9.83825 20 9.62025 20 9.44425 19.93C9.21881 19.8411 9.03331 19.6734 8.92225 19.458C8.83525 19.289 8.81325 19.072 8.77025 18.638C8.68825 17.818 8.64725 17.408 8.47525 17.182C8.36817 17.0418 8.22593 16.9325 8.06295 16.8651C7.89997 16.7976 7.72206 16.7745 7.54725 16.798C7.26625 16.835 6.94725 17.096 6.30825 17.618C5.97125 17.895 5.80225 18.033 5.62125 18.091C5.39072 18.1647 5.14131 18.1522 4.91925 18.056C4.74425 17.98 4.58925 17.826 4.28225 17.518L3.38825 16.624C3.08025 16.316 2.92625 16.162 2.85025 15.987C2.75402 15.7649 2.74159 15.5155 2.81525 15.285C2.87325 15.104 3.01125 14.935 3.28725 14.598C3.81025 13.959 4.07125 13.64 4.10825 13.359C4.13177 13.1842 4.10864 13.0063 4.0412 12.8433C3.97376 12.6803 3.86441 12.5381 3.72425 12.431C3.49925 12.259 3.08825 12.218 2.26725 12.136C1.83425 12.093 1.61725 12.071 1.44725 11.984C1.2328 11.8728 1.06585 11.6877 0.97725 11.463C0.90625 11.286 0.90625 11.068 0.90625 10.632V9.368C0.90625 8.932 0.90625 8.714 0.97625 8.538C1.06514 8.31256 1.23286 8.12706 1.44825 8.016C1.61725 7.929 1.83425 7.907 2.26825 7.864C3.08825 7.782 3.49925 7.741 3.72425 7.569C3.86459 7.46204 3.97413 7.31985 4.04175 7.15686C4.10937 6.99387 4.13266 6.8159 4.10925 6.641C4.07125 6.36 3.80925 6.041 3.28725 5.401C3.01125 5.064 2.87325 4.896 2.81525 4.714C2.74159 4.48347 2.75402 4.23406 2.85025 4.012C2.92625 3.838 3.08025 3.683 3.38825 3.375L4.28225 2.482C4.59025 2.174 4.74425 2.019 4.91925 1.944C5.14131 1.84777 5.39072 1.83534 5.62125 1.909C5.80225 1.967 5.97125 2.105 6.30825 2.381C6.94725 2.903 7.26625 3.164 7.54625 3.202C7.72146 3.22578 7.89985 3.20267 8.06322 3.13504C8.22659 3.06741 8.36911 2.95766 8.47625 2.817C8.64625 2.592 8.68825 2.182 8.77025 1.361C8.81325 0.928 8.83525 0.711 8.92225 0.541C9.03326 0.326171 9.21835 0.158843 9.44325 0.0699999C9.62025 -6.70552e-08 9.83825 0 10.2743 0H11.5382C11.9742 0 12.1923 -6.70552e-08 12.3682 0.0699999C12.5937 0.158887 12.7792 0.326615 12.8903 0.542ZM10.9062 14C11.9671 14 12.9845 13.5786 13.7347 12.8284C14.4848 12.0783 14.9062 11.0609 14.9062 10C14.9062 8.93913 14.4848 7.92172 13.7347 7.17157C12.9845 6.42143 11.9671 6 10.9062 6C9.84538 6 8.82797 6.42143 8.07782 7.17157C7.32768 7.92172 6.90625 8.93913 6.90625 10C6.90625 11.0609 7.32768 12.0783 8.07782 12.8284C8.82797 13.5786 9.84538 14 10.9062 14Z" fill="black" fill-opacity="0.5"/>
</svg>
