<svg width="18" height="20" viewBox="0 0 18 20" fill="none" xmlns="http://www.w3.org/2000/svg">
<path fill-rule="evenodd" clip-rule="evenodd" d="M4 4.99898C4.00019 4.05295 4.26877 3.12639 4.77454 2.32691C5.2803 1.52742 6.0025 0.887828 6.85726 0.482409C7.71201 0.0769891 8.66425 -0.077619 9.60336 0.0365414C10.5425 0.150702 11.4299 0.528945 12.1627 1.12734C12.8954 1.72574 13.4433 2.51973 13.7428 3.4171C14.0423 4.31448 14.0811 5.2784 13.8546 6.19692C13.6282 7.11545 13.1458 7.95088 12.4634 8.60618C11.7811 9.26149 10.9269 9.70978 10 9.89898V14.999C10 15.2642 9.89464 15.5186 9.70711 15.7061C9.51957 15.8936 9.26522 15.999 9 15.999C8.73478 15.999 8.48043 15.8936 8.29289 15.7061C8.10536 15.5186 8 15.2642 8 14.999V9.89898C6.87064 9.66845 5.8556 9.0548 5.12669 8.16189C4.39778 7.26897 3.99976 6.15164 4 4.99898ZM6.489 14.099C6.50889 14.2289 6.50299 14.3614 6.47163 14.489C6.44028 14.6166 6.38408 14.7368 6.30626 14.8427C6.22843 14.9485 6.1305 15.038 6.01807 15.106C5.90564 15.174 5.7809 15.2192 5.651 15.239C4.373 15.434 3.358 15.728 2.691 16.054C2.356 16.218 2.157 16.367 2.054 16.476L2.033 16.499C2.066 16.538 2.123 16.595 2.223 16.668C2.503 16.875 2.972 17.103 3.641 17.312C4.968 17.727 6.863 17.999 9 17.999C11.137 17.999 13.032 17.727 14.359 17.312C15.029 17.103 15.497 16.875 15.777 16.668C15.877 16.595 15.934 16.538 15.967 16.499L15.946 16.476C15.843 16.367 15.644 16.218 15.309 16.054C14.642 15.728 13.627 15.434 12.349 15.239C12.2177 15.221 12.0912 15.177 11.977 15.1097C11.8628 15.0424 11.7632 14.953 11.6838 14.8468C11.6045 14.7406 11.547 14.6197 11.5149 14.4911C11.4827 14.3625 11.4764 14.2288 11.4963 14.0977C11.5163 13.9667 11.5621 13.8409 11.6311 13.7277C11.7001 13.6145 11.7909 13.5162 11.8983 13.4384C12.0056 13.3607 12.1274 13.305 12.2564 13.2747C12.3855 13.2444 12.5193 13.2401 12.65 13.262C14.038 13.472 15.272 13.809 16.189 14.258C16.646 14.482 17.073 14.758 17.397 15.1C17.727 15.447 18 15.92 18 16.499C18 17.31 17.476 17.899 16.966 18.276C16.436 18.668 15.733 18.978 14.956 19.221C13.386 19.711 11.282 19.999 9 19.999C6.718 19.999 4.613 19.711 3.045 19.221C2.267 18.978 1.565 18.668 1.035 18.276C0.524 17.899 0 17.31 0 16.499C0 15.919 0.273 15.447 0.603 15.099C0.928 14.757 1.354 14.482 1.811 14.259C2.728 13.809 3.963 13.473 5.349 13.262C5.47889 13.2421 5.61142 13.248 5.73902 13.2793C5.86662 13.3107 5.9868 13.3669 6.09267 13.4447C6.19854 13.5226 6.28804 13.6205 6.35604 13.7329C6.42405 13.8453 6.46923 13.9691 6.489 14.099Z" fill="white"/>
</svg>
