<svg width="21" height="20" viewBox="0 0 21 20" fill="none" xmlns="http://www.w3.org/2000/svg">
<path d="M17.6262 12.7607C17.9762 11.9107 18.1663 11.0007 18.1663 10.0007C18.1663 9.28068 18.0562 8.59068 17.8662 7.95068C17.2162 8.10068 16.5363 8.18068 15.8263 8.18068C14.3722 8.18224 12.9391 7.8342 11.6478 7.1659C10.3564 6.4976 9.24468 5.52863 8.40625 4.34068C7.51021 6.51142 5.81797 8.25733 3.67625 9.22068C3.63625 9.47068 3.63625 9.74068 3.63625 10.0007C3.63625 10.9554 3.82429 11.9008 4.18965 12.7828C4.555 13.6648 5.0905 14.4663 5.76558 15.1413C7.12897 16.5047 8.97813 17.2707 10.9062 17.2707C11.9563 17.2707 12.9663 17.0407 13.8763 16.6307C14.4462 17.7207 14.7063 18.2607 14.6862 18.2607C13.0462 18.8107 11.7762 19.0807 10.9062 19.0807C8.48625 19.0807 6.17625 18.1307 4.47625 16.4207C3.4413 15.3906 2.67252 14.1242 2.23625 12.7307H0.90625V8.18068H1.99625C2.32649 6.57319 3.08574 5.08509 4.19344 3.87427C5.30114 2.66345 6.71596 1.77509 8.28778 1.30344C9.8596 0.831789 11.5298 0.794451 13.1211 1.19539C14.7124 1.59632 16.1656 2.42057 17.3263 3.58068C18.586 4.83626 19.4455 6.43696 19.7962 8.18068H20.9062V12.7307H20.8463L17.2862 16.0007L11.9862 15.4007V13.7307H16.8162L17.6262 12.7607ZM8.17625 9.77068C8.47625 9.77068 8.76625 9.89068 8.97625 10.1107C9.1873 10.3234 9.30572 10.611 9.30572 10.9107C9.30572 11.2104 9.1873 11.4979 8.97625 11.7107C8.76625 11.9207 8.47625 12.0407 8.17625 12.0407C7.54625 12.0407 7.03625 11.5407 7.03625 10.9107C7.03625 10.2807 7.54625 9.77068 8.17625 9.77068ZM13.6263 9.77068C14.2563 9.77068 14.7563 10.2807 14.7563 10.9107C14.7563 11.5407 14.2563 12.0407 13.6263 12.0407C12.9963 12.0407 12.4862 11.5407 12.4862 10.9107C12.4862 10.6083 12.6064 10.3184 12.8201 10.1046C13.0339 9.89079 13.3239 9.77068 13.6263 9.77068Z" fill="#5E5F60" fill-opacity="0.5"/>
</svg>
