<svg width="20" height="20" viewBox="0 0 20 20" fill="none" xmlns="http://www.w3.org/2000/svg">
<path d="M16.72 12.7602C17.07 11.9102 17.26 11.0002 17.26 10.0002C17.26 9.28019 17.15 8.59019 16.96 7.95019C16.31 8.10019 15.63 8.18019 14.92 8.18019C13.466 8.18175 12.0329 7.83371 10.7415 7.16541C9.45018 6.49711 8.33843 5.52815 7.5 4.34019C6.60396 6.51093 4.91172 8.25684 2.77 9.22019C2.73 9.47019 2.73 9.74019 2.73 10.0002C2.73 10.9549 2.91804 11.9003 3.2834 12.7823C3.64875 13.6643 4.18425 14.4658 4.85933 15.1409C6.22272 16.5042 8.07188 17.2702 10 17.2702C11.05 17.2702 12.06 17.0402 12.97 16.6302C13.54 17.7202 13.8 18.2602 13.78 18.2602C12.14 18.8102 10.87 19.0802 10 19.0802C7.58 19.0802 5.27 18.1302 3.57 16.4202C2.53505 15.3901 1.76627 14.1237 1.33 12.7302H0V8.18019H1.09C1.42024 6.5727 2.17949 5.0846 3.28719 3.87378C4.39489 2.66296 5.80971 1.7746 7.38153 1.30295C8.95335 0.8313 10.6235 0.793963 12.2149 1.1949C13.8062 1.59583 15.2593 2.42008 16.42 3.58019C17.6798 4.83577 18.5393 6.43648 18.89 8.18019H20V12.7302H19.94L16.38 16.0002L11.08 15.4002V13.7302H15.91L16.72 12.7602ZM7.27 9.77019C7.57 9.77019 7.86 9.89019 8.07 10.1102C8.28105 10.323 8.39947 10.6105 8.39947 10.9102C8.39947 11.2099 8.28105 11.4974 8.07 11.7102C7.86 11.9202 7.57 12.0402 7.27 12.0402C6.64 12.0402 6.13 11.5402 6.13 10.9102C6.13 10.2802 6.64 9.77019 7.27 9.77019ZM12.72 9.77019C13.35 9.77019 13.85 10.2802 13.85 10.9102C13.85 11.5402 13.35 12.0402 12.72 12.0402C12.09 12.0402 11.58 11.5402 11.58 10.9102C11.58 10.6078 11.7001 10.3179 11.9139 10.1041C12.1277 9.8903 12.4177 9.77019 12.72 9.77019Z" fill="#5E5F60" fill-opacity="0.5"/>
</svg>
