<svg width="20" height="17" viewBox="0 0 20 17" fill="none" xmlns="http://www.w3.org/2000/svg">
<path d="M9.69 11.9771L7.98417 10.1995L13.6433 5.25467L14.6517 6.33617L9.69 11.9771ZM17.0542 17C18.8375 15.2224 20 12.7496 20 9.96775C20 4.48217 15.5042 0 10 0C4.49583 0 0 4.48217 0 9.96775C0 12.7504 1.085 15.2224 2.94583 17L4.34083 15.6087C2.86833 14.1409 2.01583 12.2088 2.01583 9.96858C2.01441 8.92299 2.21994 7.88739 2.62066 6.92109C3.02137 5.9548 3.6094 5.0768 4.35106 4.33737C5.09272 3.59795 5.97344 3.01164 6.94278 2.61201C7.91212 2.21238 8.95103 2.0073 10 2.0085C11.0488 2.0073 12.0876 2.21233 13.0568 2.61185C14.0261 3.01137 14.9067 3.59754 15.6483 4.33679C16.39 5.07603 16.978 5.95384 17.3789 6.91994C17.7797 7.88605 17.9854 8.92147 17.9842 9.96692C17.9842 12.1308 17.0542 14.1401 15.6592 15.6078L17.0542 17Z" fill="black" fill-opacity="0.5"/>
</svg>
